<svg xmlns="http://www.w3.org/2000/svg" xmlns:xlink="http://www.w3.org/1999/xlink" width="188" zoomAndPan="magnify" viewBox="0 0 141.75 141.749996" height="188" preserveAspectRatio="xMidYMid meet" version="1.0"><defs><clipPath id="db798e6ebe"><path d="M 0 0 L 141.5 0 L 141.5 141.5 L 0 141.5 Z M 0 0 " clip-rule="nonzero"/></clipPath><clipPath id="c0a0364ba0"><path d="M 24.5625 69 L 116.652344 69 L 116.652344 90.109375 L 24.5625 90.109375 Z M 24.5625 69 " clip-rule="nonzero"/></clipPath><clipPath id="e03f838f4b"><path d="M 24.5625 51.179688 L 116.652344 51.179688 L 116.652344 86 L 24.5625 86 Z M 24.5625 51.179688 " clip-rule="nonzero"/></clipPath></defs><g clip-path="url(#db798e6ebe)"><path fill="#ffffff" d="M 0 0 L 141.5 0 L 141.5 141.5 L 0 141.5 Z M 0 0 " fill-opacity="1" fill-rule="nonzero"/><path fill="#000000" d="M 0 0 L 141.5 0 L 141.5 141.5 L 0 141.5 Z M 0 0 " fill-opacity="1" fill-rule="nonzero"/></g><g clip-path="url(#c0a0364ba0)"><path fill="#ea8439" d="M 116.804688 69.75 L 116.804688 72.992188 C 116.804688 73.015625 116.804688 73.015625 116.804688 73.039062 C 116.804688 82.574219 109.078125 90.296875 99.542969 90.296875 L 41.925781 90.296875 C 32.390625 90.296875 24.667969 82.550781 24.667969 73.039062 C 24.667969 72.992188 24.667969 72.96875 24.667969 72.917969 C 24.667969 72.871094 24.667969 72.847656 24.667969 72.800781 L 24.667969 69.75 Z M 116.804688 69.75 L 116.804688 72.992188 C 116.804688 73.015625 116.804688 73.015625 116.804688 73.039062 C 116.804688 82.574219 109.078125 90.296875 99.542969 90.296875 L 41.925781 90.296875 C 32.390625 90.296875 24.667969 82.550781 24.667969 73.039062 C 24.667969 72.992188 24.667969 72.96875 24.667969 72.917969 C 24.667969 72.871094 24.667969 72.847656 24.667969 72.800781 L 24.667969 69.75 Z M 116.804688 69.75 " fill-opacity="1" fill-rule="nonzero"/></g><g clip-path="url(#e03f838f4b)"><path fill="#ffde17" d="M 116.804688 68.320312 L 116.804688 68.390625 C 116.804688 68.414062 116.804688 68.414062 116.804688 68.4375 C 116.804688 77.972656 109.078125 85.695312 99.542969 85.695312 L 41.925781 85.695312 C 32.390625 85.695312 24.667969 77.949219 24.667969 68.4375 C 24.667969 68.390625 24.667969 68.367188 24.667969 68.320312 C 24.667969 68.269531 24.667969 68.246094 24.667969 68.199219 C 24.8125 58.785156 32.464844 51.179688 41.925781 51.179688 L 99.542969 51.179688 C 99.542969 51.179688 99.542969 51.179688 99.570312 51.179688 C 109.03125 51.179688 116.730469 58.832031 116.804688 68.320312 Z M 116.804688 68.320312 L 116.804688 68.390625 C 116.804688 68.414062 116.804688 68.414062 116.804688 68.4375 C 116.804688 77.972656 109.078125 85.695312 99.542969 85.695312 L 41.925781 85.695312 C 32.390625 85.695312 24.667969 77.949219 24.667969 68.4375 C 24.667969 68.390625 24.667969 68.367188 24.667969 68.320312 C 24.667969 68.269531 24.667969 68.246094 24.667969 68.199219 C 24.8125 58.785156 32.464844 51.179688 41.925781 51.179688 L 99.542969 51.179688 C 99.542969 51.179688 99.542969 51.179688 99.570312 51.179688 C 109.03125 51.179688 116.730469 58.832031 116.804688 68.320312 Z M 116.804688 68.320312 " fill-opacity="1" fill-rule="nonzero"/></g><path fill="#000000" d="M 54.371094 68.582031 C 54.632812 69.035156 54.753906 69.558594 54.753906 70.203125 L 54.753906 71.296875 C 54.753906 72.277344 54.464844 73.039062 53.894531 73.609375 C 53.324219 74.183594 52.558594 74.46875 51.582031 74.46875 L 48.222656 74.46875 L 48.222656 61.121094 L 51.414062 61.121094 C 52.394531 61.121094 53.15625 61.40625 53.726562 61.976562 C 54.300781 62.550781 54.585938 63.335938 54.585938 64.289062 L 54.585938 65.003906 C 54.585938 66.195312 54.132812 67.054688 53.226562 67.554688 C 53.726562 67.792969 54.109375 68.152344 54.371094 68.582031 Z M 50.246094 63.027344 L 50.246094 66.648438 L 51.152344 66.648438 C 51.628906 66.648438 51.988281 66.53125 52.226562 66.292969 C 52.464844 66.054688 52.582031 65.695312 52.582031 65.21875 L 52.582031 64.265625 C 52.582031 63.859375 52.464844 63.574219 52.25 63.359375 C 52.035156 63.144531 51.726562 63.027344 51.34375 63.027344 Z M 52.75 69.988281 C 52.75 69.511719 52.632812 69.152344 52.394531 68.914062 C 52.152344 68.675781 51.796875 68.558594 51.320312 68.558594 L 50.246094 68.558594 L 50.246094 72.5625 L 51.511719 72.5625 C 51.914062 72.5625 52.203125 72.441406 52.417969 72.226562 C 52.632812 72.011719 52.75 71.703125 52.75 71.320312 C 52.75 71.320312 52.75 69.988281 52.75 69.988281 Z M 63 71.511719 L 60.832031 71.511719 L 60.402344 74.46875 L 58.375 74.46875 L 60.59375 61.121094 L 63.285156 61.121094 L 65.503906 74.46875 L 63.453125 74.46875 Z M 62.738281 69.582031 L 61.929688 64.003906 L 61.117188 69.582031 Z M 70.222656 73.800781 C 69.628906 73.207031 69.339844 72.441406 69.339844 71.511719 L 69.339844 64.121094 C 69.339844 63.191406 69.628906 62.429688 70.222656 61.835938 C 70.820312 61.238281 71.582031 60.953125 72.511719 60.953125 C 73.441406 60.953125 74.203125 61.238281 74.800781 61.835938 C 75.398438 62.429688 75.683594 63.191406 75.683594 64.121094 L 75.683594 65.695312 L 73.703125 65.695312 L 73.703125 64.121094 C 73.703125 63.742188 73.585938 63.433594 73.371094 63.21875 C 73.15625 62.980469 72.871094 62.882812 72.535156 62.882812 C 72.203125 62.882812 71.917969 63.003906 71.703125 63.21875 C 71.488281 63.457031 71.367188 63.742188 71.367188 64.121094 L 71.367188 71.511719 C 71.367188 71.894531 71.488281 72.203125 71.703125 72.417969 C 71.917969 72.65625 72.203125 72.753906 72.535156 72.753906 C 72.871094 72.753906 73.15625 72.632812 73.371094 72.417969 C 73.585938 72.179688 73.703125 71.894531 73.703125 71.511719 L 73.703125 69.605469 L 75.683594 69.605469 L 75.683594 71.511719 C 75.683594 72.441406 75.398438 73.207031 74.800781 73.800781 C 74.203125 74.398438 73.441406 74.683594 72.511719 74.683594 C 71.582031 74.660156 70.820312 74.375 70.222656 73.800781 Z M 82.808594 68.984375 L 82.046875 70.464844 L 82.046875 74.492188 L 80.019531 74.492188 L 80.019531 61.144531 L 82.046875 61.144531 L 82.046875 66.554688 L 84.71875 61.144531 L 86.886719 61.144531 L 84.050781 66.816406 L 87.101562 74.492188 L 84.933594 74.492188 Z M 90.535156 67.792969 L 96.015625 72.371094 L 96.015625 63.21875 Z M 90.535156 67.792969 " fill-opacity="1" fill-rule="nonzero"/></svg>