<svg xmlns="http://www.w3.org/2000/svg" xmlns:xlink="http://www.w3.org/1999/xlink" width="188" zoomAndPan="magnify" viewBox="0 0 141.12 141.750002" height="188" preserveAspectRatio="xMidYMid meet" version="1.0"><defs><g/><clipPath id="d1526600b4"><path d="M 73.480469 42.355469 L 129.839844 42.355469 L 129.839844 98.710938 L 73.480469 98.710938 Z M 73.480469 42.355469 " clip-rule="nonzero"/></clipPath><clipPath id="30c6d230d5"><path d="M 81 50 L 129.839844 50 L 129.839844 98.710938 L 81 98.710938 Z M 81 50 " clip-rule="nonzero"/></clipPath><clipPath id="bfdb380e34"><path d="M 73.480469 42.355469 L 119 42.355469 L 119 94 L 73.480469 94 Z M 73.480469 42.355469 " clip-rule="nonzero"/></clipPath></defs><g clip-path="url(#d1526600b4)"><path fill="#fff800" d="M 129.527344 70.367188 C 129.527344 85.84375 116.980469 98.386719 101.503906 98.386719 C 93.609375 98.386719 86.472656 95.121094 81.378906 89.859375 C 76.492188 84.820312 73.484375 77.941406 73.484375 70.367188 C 73.484375 54.890625 86.035156 42.347656 101.503906 42.347656 C 109.082031 42.347656 115.953125 45.351562 120.996094 50.242188 C 126.257812 55.332031 129.527344 62.464844 129.527344 70.367188 Z M 129.527344 70.367188 " fill-opacity="1" fill-rule="nonzero"/></g><path fill="#e0882a" d="M 122.613281 70.367188 C 122.613281 82.019531 113.160156 91.46875 101.503906 91.46875 C 95.519531 91.46875 90.113281 88.976562 86.277344 84.964844 C 82.636719 81.175781 80.40625 76.03125 80.40625 70.367188 C 80.40625 58.710938 89.855469 49.261719 101.507812 49.261719 C 107.171875 49.261719 112.316406 51.492188 116.109375 55.128906 C 120.117188 58.972656 122.613281 64.378906 122.613281 70.367188 Z M 122.613281 70.367188 " fill-opacity="1" fill-rule="nonzero"/><path fill="#c3651c" d="M 116.988281 56.027344 C 113.21875 52.496094 108.148438 50.34375 102.589844 50.34375 C 90.941406 50.34375 81.488281 59.796875 81.488281 71.453125 C 81.488281 77.011719 83.640625 82.074219 87.179688 85.84375 C 86.871094 85.5625 86.570312 85.269531 86.277344 84.964844 C 82.636719 81.175781 80.40625 76.03125 80.40625 70.367188 C 80.40625 58.710938 89.855469 49.261719 101.507812 49.261719 C 107.171875 49.261719 112.316406 51.492188 116.109375 55.128906 C 116.414062 55.421875 116.707031 55.71875 116.988281 56.027344 Z M 116.988281 56.027344 " fill-opacity="1" fill-rule="nonzero"/><g clip-path="url(#30c6d230d5)"><path fill="#ffde17" d="M 129.527344 70.367188 C 129.527344 85.84375 116.984375 98.386719 101.507812 98.386719 C 93.613281 98.386719 86.476562 95.121094 81.382812 89.859375 L 86.28125 84.964844 C 86.570312 85.269531 86.867188 85.5625 87.175781 85.835938 C 87.863281 86.480469 88.589844 87.078125 89.359375 87.621094 C 92.792969 90.042969 96.984375 91.46875 101.507812 91.46875 C 113.164062 91.46875 122.613281 82.015625 122.613281 70.367188 C 122.613281 64.832031 120.484375 59.792969 116.988281 56.027344 C 116.707031 55.71875 116.414062 55.421875 116.109375 55.128906 L 116.191406 55.050781 L 121 50.238281 C 126.261719 55.332031 129.527344 62.464844 129.527344 70.367188 Z M 129.527344 70.367188 " fill-opacity="1" fill-rule="nonzero"/></g><path fill="#fff800" d="M 123.699219 71.453125 C 123.699219 83.101562 114.246094 92.550781 102.589844 92.550781 C 96.601562 92.550781 91.199219 90.058594 87.363281 86.050781 C 87.300781 85.980469 87.230469 85.910156 87.175781 85.839844 C 87.863281 86.484375 88.589844 87.082031 89.359375 87.621094 C 92.792969 90.042969 96.984375 91.46875 101.507812 91.46875 C 113.164062 91.46875 122.613281 82.019531 122.613281 70.367188 C 122.613281 64.835938 120.484375 59.796875 116.988281 56.027344 C 117.058594 56.082031 117.125 56.148438 117.195312 56.210938 C 121.203125 60.054688 123.699219 65.460938 123.699219 71.453125 Z M 123.699219 71.453125 " fill-opacity="1" fill-rule="nonzero"/><g clip-path="url(#bfdb380e34)"><path fill="#fff800" d="M 74.765625 71.289062 C 74.765625 78.863281 77.773438 85.738281 82.660156 90.78125 C 83.613281 91.765625 84.644531 92.683594 85.734375 93.523438 C 84.160156 92.449219 82.703125 91.21875 81.382812 89.859375 C 76.492188 84.820312 73.488281 77.945312 73.488281 70.367188 C 73.488281 54.890625 86.035156 42.347656 101.507812 42.347656 C 107.902344 42.347656 113.789062 44.488281 118.503906 48.089844 C 114.023438 45.046875 108.613281 43.269531 102.785156 43.269531 C 87.3125 43.269531 74.765625 55.8125 74.765625 71.289062 Z M 74.765625 71.289062 " fill-opacity="1" fill-rule="nonzero"/></g><path fill="#c3651c" d="M 106.617188 70.359375 L 114.550781 73.042969 L 93.40625 89.710938 L 102.679688 76.664062 L 97.871094 75.535156 L 92.273438 74.222656 L 102.679688 54.273438 L 109.863281 57.398438 L 109.871094 57.398438 L 114.152344 59.257812 L 115.164062 59.703125 Z M 106.617188 70.359375 " fill-opacity="1" fill-rule="nonzero"/><path fill="#fff800" d="M 106.078125 68.734375 L 114.011719 71.417969 L 92.867188 88.085938 L 102.136719 75.039062 L 97.332031 73.910156 L 91.734375 72.597656 L 102.136719 52.648438 L 109.324219 55.773438 L 109.328125 55.773438 L 113.609375 57.632812 L 114.625 58.078125 Z M 106.078125 68.734375 " fill-opacity="1" fill-rule="nonzero"/><path fill="#ffde17" d="M 106.078125 68.734375 L 114.011719 71.417969 L 92.867188 88.085938 L 102.136719 75.039062 L 97.332031 73.910156 L 113.609375 57.632812 L 114.625 58.078125 Z M 106.078125 68.734375 " fill-opacity="1" fill-rule="nonzero"/><path fill="#fff800" d="M 93.386719 72.039062 L 104.457031 74.621094 L 92.867188 88.085938 L 102.136719 75.039062 L 91.734375 72.597656 L 102.136719 52.648438 L 109.324219 55.773438 L 103.292969 53.589844 Z M 93.386719 72.039062 " fill-opacity="1" fill-rule="nonzero"/><g fill="#ffffff" fill-opacity="1"><g transform="translate(7.704218, 42.225478)"><g/></g></g><g fill="#ffffff" fill-opacity="1"><g transform="translate(12.5909, 42.225478)"><g><path d="M 1.222656 -2.558594 L 1.234375 0 L 2.535156 0 L 2.429688 -0.675781 C 2.429688 -0.675781 2.828125 0.140625 4.421875 0.140625 C 5.839844 0.140625 6.945312 -0.757812 6.945312 -2.210938 C 6.945312 -3.28125 6.421875 -4.003906 4.59375 -4.710938 C 3.445312 -5.175781 3 -5.527344 3 -6.097656 C 3 -6.597656 3.328125 -7.027344 4.140625 -7.027344 C 4.792969 -7.027344 5.339844 -6.839844 5.398438 -6.15625 L 5.398438 -5.769531 L 6.703125 -5.769531 L 6.691406 -8.179688 L 5.386719 -8.179688 L 5.492188 -7.65625 C 5.457031 -7.714844 5.121094 -8.320312 4.058594 -8.320312 C 2.453125 -8.320312 1.546875 -7.226562 1.546875 -6.0625 C 1.546875 -5.039062 2.09375 -4.234375 3.6875 -3.628906 C 5.164062 -3.082031 5.46875 -2.757812 5.46875 -2.210938 C 5.46875 -1.6875 5.050781 -1.210938 4.117188 -1.210938 C 3.363281 -1.210938 2.523438 -1.476562 2.523438 -2.410156 L 2.523438 -2.558594 Z M 6.609375 -0.570312 L 7.796875 0.210938 C 7.828125 0.164062 7.863281 0.128906 7.886719 0.0820312 L 6.703125 -0.699219 Z M 8.320312 -1.117188 L 8.320312 -1.304688 L 7.167969 -2.070312 C 7.167969 -2 7.15625 -1.941406 7.144531 -1.886719 Z M 8.074219 -0.210938 L 6.875 -1 C 6.851562 -0.953125 6.839844 -0.90625 6.804688 -0.859375 L 8.003906 -0.0703125 Z M 6.910156 -7.074219 L 8.0625 -6.304688 L 8.0625 -6.503906 L 6.910156 -7.261719 Z M 7.65625 0.347656 L 6.46875 -0.429688 C 6.433594 -0.394531 6.398438 -0.347656 6.351562 -0.3125 L 7.539062 0.453125 C 7.574219 0.417969 7.621094 0.394531 7.65625 0.347656 Z M 8.214844 -0.535156 L 7.015625 -1.328125 C 7.003906 -1.269531 6.992188 -1.222656 6.96875 -1.175781 L 8.15625 -0.382812 C 8.167969 -0.441406 8.191406 -0.488281 8.214844 -0.535156 Z M 4.433594 -5.539062 L 3.257812 -6.316406 C 3.234375 -6.269531 3.222656 -6.210938 3.222656 -6.15625 L 4.398438 -5.375 Z M 4.628906 -5.828125 L 3.445312 -6.609375 L 3.339844 -6.492188 L 4.527344 -5.710938 Z M 8.074219 -5.65625 L 6.910156 -6.421875 L 6.910156 -6.234375 L 8.074219 -5.46875 Z M 6.910156 -5.816406 L 8.074219 -5.050781 L 8.074219 -5.234375 L 6.910156 -6.003906 Z M 7.375 0.582031 L 6.203125 -0.1875 L 6.0625 -0.09375 L 7.238281 0.675781 C 7.285156 0.640625 7.328125 0.605469 7.375 0.582031 Z M 4.957031 -6.039062 L 3.828125 -6.78125 C 3.757812 -6.757812 3.6875 -6.746094 3.628906 -6.726562 L 4.792969 -5.957031 C 4.839844 -5.992188 4.898438 -6.015625 4.957031 -6.039062 Z M 6.910156 -7.492188 L 8.0625 -6.738281 L 8.0625 -6.921875 L 6.910156 -7.679688 Z M 6.910156 -6.65625 L 8.0625 -5.886719 L 8.0625 -6.074219 L 6.910156 -6.839844 Z M 8.285156 -0.90625 L 7.121094 -1.675781 L 7.085938 -1.511719 L 8.261719 -0.746094 C 8.273438 -0.792969 8.285156 -0.847656 8.285156 -0.90625 Z M 6.632812 0.929688 L 5.492188 0.175781 C 5.421875 0.199219 5.351562 0.210938 5.292969 0.234375 L 6.421875 0.976562 Z M 6.132812 1.011719 L 5.039062 0.289062 L 4.792969 0.324219 L 5.875 1.035156 C 5.957031 1.035156 6.050781 1.023438 6.132812 1.011719 Z M 7.039062 0.78125 L 5.875 0.0117188 L 5.710938 0.0820312 L 6.863281 0.847656 Z M 2.792969 0.210938 L 2.710938 0.210938 L 3.757812 0.894531 L 3.898438 0.894531 L 3.875 0.792969 L 2.769531 0.0585938 Z M 8.085938 -2.292969 L 7.039062 -2.988281 C 7.0625 -2.910156 7.085938 -2.839844 7.097656 -2.757812 L 8.203125 -2.035156 C 8.167969 -2.117188 8.132812 -2.210938 8.085938 -2.292969 Z M 8.285156 -1.746094 L 7.144531 -2.488281 C 7.15625 -2.429688 7.167969 -2.363281 7.167969 -2.304688 L 8.308594 -1.546875 Z M 2.082031 0.210938 L 3.117188 0.894531 L 3.410156 0.894531 L 2.363281 0.210938 Z M 6.027344 -5.5625 L 7.074219 -4.875 L 7.351562 -4.875 L 6.316406 -5.5625 Z M 6.921875 -5.5625 L 6.667969 -5.5625 L 7.703125 -4.875 L 7.992188 -4.875 L 6.921875 -5.574219 Z M 5.503906 1.023438 L 4.480469 0.347656 L 4.433594 0.347656 C 4.339844 0.347656 4.269531 0.335938 4.175781 0.335938 L 5.152344 0.976562 C 5.257812 1 5.386719 1.011719 5.503906 1.023438 Z M 4.375 -5.164062 L 3.246094 -5.898438 C 3.292969 -5.78125 3.375 -5.667969 3.492188 -5.5625 L 4.058594 -5.1875 C 4.152344 -5.140625 4.257812 -5.085938 4.375 -5.039062 Z M 8.0625 -7.273438 L 6.910156 -8.039062 L 6.910156 -7.875 L 8.0625 -7.121094 Z M 5.199219 -6.132812 C 5.1875 -6.203125 5.175781 -6.257812 5.152344 -6.316406 L 4.433594 -6.804688 C 4.339844 -6.816406 4.246094 -6.816406 4.152344 -6.816406 L 4.117188 -6.816406 L 5.199219 -6.109375 Z M 3.898438 -1.652344 L 2.746094 -2.421875 L 2.746094 -2.410156 C 2.746094 -2.363281 2.746094 -2.316406 2.757812 -2.269531 L 3.898438 -1.523438 Z M 2.59375 0.894531 L 2.769531 0.894531 L 1.722656 0.210938 L 1.558594 0.210938 Z M 4.28125 0.652344 C 4.339844 0.699219 4.421875 0.746094 4.503906 0.78125 L 3.710938 0.257812 C 3.511719 0.210938 3.351562 0.164062 3.199219 0.117188 L 3.839844 0.535156 L 3.816406 0.335938 Z M 3.628906 -1.464844 L 2.839844 -1.988281 C 2.976562 -1.699219 3.28125 -1.535156 3.628906 -1.464844 Z M 3.628906 -1.464844 "/></g></g></g><g fill="#ffffff" fill-opacity="1"><g transform="translate(20.781631, 42.225478)"><g><path d="M 1.070312 -6.851562 L 1.964844 -6.851562 L 1.964844 -1.328125 L 1.070312 -1.328125 L 1.070312 0 L 4.792969 0 L 4.792969 -1.328125 L 3.410156 -1.328125 L 3.410156 -2.375 L 4.1875 -2.375 C 6.65625 -2.375 7.738281 -3.558594 7.738281 -5.269531 C 7.738281 -6.980469 6.644531 -8.179688 4.46875 -8.179688 L 1.070312 -8.179688 Z M 4.363281 -6.851562 C 5.722656 -6.851562 6.179688 -6.167969 6.179688 -5.269531 C 6.179688 -4.375 5.710938 -3.652344 4.363281 -3.652344 L 3.410156 -3.652344 L 3.410156 -6.851562 Z M 3.617188 -6.644531 L 3.617188 -6.457031 L 4.769531 -5.699219 L 4.769531 -5.898438 L 3.640625 -6.644531 Z M 4.769531 -4.863281 L 4.769531 -5.0625 L 3.617188 -5.816406 L 3.617188 -5.621094 Z M 4.769531 -5.28125 L 4.769531 -5.480469 L 3.617188 -6.234375 L 3.617188 -6.039062 Z M 4.769531 -4.027344 L 4.769531 -4.222656 L 3.617188 -4.980469 L 3.617188 -4.78125 Z M 8.433594 -2.453125 L 8.539062 -2.570312 L 7.351562 -3.351562 L 7.25 -3.222656 Z M 6.15625 0.234375 L 6.15625 0.0351562 L 5.003906 -0.710938 L 5.003906 -0.523438 Z M 7.085938 -1.664062 C 7.15625 -1.675781 7.214844 -1.699219 7.285156 -1.722656 L 6.132812 -2.476562 L 5.933594 -2.410156 Z M 8.820312 -3.035156 C 8.84375 -3.082031 8.878906 -3.128906 8.890625 -3.175781 L 7.703125 -3.957031 L 7.644531 -3.804688 Z M 7.503906 -1.804688 L 7.667969 -1.886719 L 6.503906 -2.652344 C 6.457031 -2.617188 6.398438 -2.59375 6.339844 -2.570312 Z M 9.085938 -4.105469 C 9.097656 -4.175781 9.097656 -4.234375 9.097656 -4.292969 L 7.933594 -5.050781 C 7.933594 -4.992188 7.933594 -4.933594 7.921875 -4.875 Z M 7.863281 -1.988281 L 8.003906 -2.082031 L 6.828125 -2.851562 L 6.691406 -2.757812 Z M 8.65625 -2.722656 L 8.738281 -2.851562 L 7.539062 -3.628906 L 7.457031 -3.503906 Z M 8.957031 -3.363281 C 8.96875 -3.421875 8.992188 -3.46875 9.003906 -3.511719 L 7.820312 -4.292969 C 7.808594 -4.234375 7.796875 -4.1875 7.773438 -4.140625 Z M 6.15625 -0.1875 L 6.15625 -0.371094 L 5.003906 -1.128906 L 5.003906 -0.941406 Z M 4.769531 -4.445312 L 4.769531 -4.628906 L 3.617188 -5.386719 L 3.617188 -5.199219 Z M 6.15625 0.652344 L 6.15625 0.464844 L 5.003906 -0.289062 L 5.003906 -0.105469 Z M 9.074219 -4.722656 L 7.933594 -5.46875 C 7.933594 -5.410156 7.945312 -5.339844 7.945312 -5.28125 L 9.085938 -4.527344 C 9.085938 -4.59375 9.085938 -4.664062 9.074219 -4.722656 Z M 8.296875 -2.304688 L 7.109375 -3.082031 L 6.992188 -2.976562 L 8.167969 -2.210938 Z M 9.039062 -3.722656 C 9.050781 -3.78125 9.0625 -3.839844 9.0625 -3.898438 L 7.898438 -4.652344 L 7.875 -4.503906 Z M 6.15625 0.894531 L 6.15625 0.871094 L 5.003906 0.117188 L 5.003906 0.210938 L 4.839844 0.210938 L 5.886719 0.894531 Z M 6.609375 -1.558594 L 6.828125 -1.59375 L 5.699219 -2.339844 L 5.492188 -2.292969 Z M 6.074219 -1.488281 L 6.316406 -1.511719 L 5.210938 -2.234375 L 4.980469 -2.199219 Z M 8.980469 -5.199219 L 7.886719 -5.921875 L 7.921875 -5.710938 L 9.039062 -4.980469 C 9.027344 -5.0625 9.003906 -5.128906 8.980469 -5.199219 Z M 2.710938 0.894531 L 3 0.894531 L 1.953125 0.210938 L 1.664062 0.210938 Z M 5.46875 -1.476562 L 5.746094 -1.476562 L 4.675781 -2.175781 C 4.59375 -2.175781 4.503906 -2.164062 4.421875 -2.164062 Z M 4.617188 0.894531 L 4.898438 0.894531 L 3.863281 0.210938 L 3.570312 0.210938 Z M 3.992188 0.894531 L 4.269531 0.894531 L 3.222656 0.210938 L 2.945312 0.210938 Z M 3.351562 0.894531 L 3.628906 0.894531 L 2.582031 0.210938 L 2.304688 0.210938 Z M 5.027344 -5.957031 L 5.304688 -5.957031 L 4.257812 -6.644531 L 3.980469 -6.644531 Z M 5.257812 0.894531 L 5.539062 0.894531 L 4.492188 0.210938 L 4.210938 0.210938 Z M 8.773438 -5.769531 L 7.761719 -6.421875 C 7.785156 -6.351562 7.820312 -6.28125 7.828125 -6.203125 L 8.890625 -5.503906 Z M 5.109375 -1.476562 L 4.070312 -2.164062 L 3.78125 -2.164062 L 4.734375 -1.535156 L 5.003906 -1.535156 L 5.003906 -1.476562 Z M 4.652344 -3.875 L 3.617188 -4.5625 L 3.617188 -4.363281 L 4.386719 -3.863281 C 4.480469 -3.863281 4.574219 -3.863281 4.652344 -3.875 Z M 5.667969 -5.957031 L 5.828125 -5.957031 L 5.746094 -6.085938 L 5.015625 -6.5625 C 4.898438 -6.597656 4.769531 -6.621094 4.640625 -6.632812 Z M 4.09375 -1.535156 L 4.386719 -1.535156 L 3.617188 -2.046875 L 3.617188 -1.851562 Z M 3.617188 -4.140625 L 3.617188 -3.945312 L 3.746094 -3.863281 L 4.039062 -3.863281 Z M 3.617188 -1.535156 L 3.757812 -1.535156 L 3.617188 -1.628906 Z M 3.617188 -1.535156 "/></g></g></g><g fill="#ffffff" fill-opacity="1"><g transform="translate(29.193419, 42.225478)"><g><path d="M 7.285156 -5.945312 L 7.285156 -8.179688 L 1.070312 -8.179688 L 1.070312 -6.851562 L 1.964844 -6.851562 L 1.964844 -1.328125 L 1.070312 -1.328125 L 1.070312 0 L 7.285156 0 L 7.285156 -2.234375 L 6.050781 -2.234375 L 6.050781 -1.328125 L 3.410156 -1.328125 L 3.410156 -3.28125 L 5.386719 -3.28125 L 5.386719 -4.5625 L 3.410156 -4.5625 L 3.410156 -6.851562 L 6.050781 -6.851562 L 6.050781 -5.945312 Z M 7.492188 -7.492188 L 8.644531 -6.738281 L 8.644531 -6.921875 L 7.492188 -7.691406 Z M 3.617188 -5.863281 L 4.769531 -5.109375 L 4.769531 -5.292969 L 3.617188 -6.050781 Z M 3.617188 -6.28125 L 4.769531 -5.527344 L 4.769531 -5.710938 L 3.617188 -6.46875 Z M 7.492188 -7.074219 L 8.644531 -6.316406 L 8.644531 -6.503906 L 7.492188 -7.273438 Z M 7.492188 -6.234375 L 8.644531 -5.480469 L 8.644531 -5.667969 L 7.492188 -6.433594 Z M 5.597656 -3.304688 L 6.746094 -2.546875 L 6.746094 -2.734375 L 5.597656 -3.492188 Z M 5.597656 -3.722656 L 6.746094 -2.96875 L 6.746094 -3.152344 L 5.597656 -3.910156 Z M 7.492188 -1.210938 L 8.644531 -0.453125 L 8.644531 -0.640625 L 7.492188 -1.40625 Z M 3.617188 -2.511719 L 4.769531 -1.757812 L 4.769531 -1.941406 L 3.617188 -2.699219 Z M 7.492188 -5.816406 L 8.644531 -5.0625 L 8.644531 -5.246094 L 7.492188 -6.015625 Z M 7.492188 -6.65625 L 8.644531 -5.898438 L 8.644531 -6.085938 L 7.492188 -6.851562 Z M 3.617188 -2.933594 L 4.769531 -2.175781 L 4.769531 -2.363281 L 3.6875 -3.070312 L 3.617188 -3.070312 Z M 7.492188 -1.640625 L 8.644531 -0.871094 L 8.644531 -1.058594 L 7.492188 -1.828125 Z M 4.769531 -4.769531 L 4.769531 -4.875 L 3.617188 -5.632812 L 3.617188 -5.445312 L 4.640625 -4.769531 Z M 7.492188 -0.371094 L 8.644531 0.371094 L 8.644531 0.199219 L 7.492188 -0.558594 Z M 5.597656 -4.140625 L 6.746094 -3.386719 L 6.746094 -3.558594 L 5.597656 -4.328125 Z M 7.492188 0.0351562 L 8.644531 0.792969 L 8.644531 0.617188 L 7.492188 -0.140625 Z M 7.492188 -0.792969 L 8.644531 -0.0351562 L 8.644531 -0.222656 L 7.492188 -0.976562 Z M 7.109375 0.210938 L 8.15625 0.894531 L 8.445312 0.894531 L 7.398438 0.210938 Z M 6.46875 0.210938 L 7.515625 0.894531 L 7.808594 0.894531 L 6.757812 0.210938 Z M 5.199219 0.210938 L 6.246094 0.894531 L 6.539062 0.894531 L 5.492188 0.210938 Z M 1.394531 0.210938 L 2.429688 0.894531 L 2.722656 0.894531 L 1.6875 0.210938 Z M 2.023438 0.210938 L 3.070312 0.894531 L 3.363281 0.894531 L 2.316406 0.210938 Z M 6.980469 -5.734375 L 8.027344 -5.050781 L 8.320312 -5.050781 L 7.273438 -5.734375 Z M 4.769531 -5.957031 L 5.039062 -5.957031 L 3.992188 -6.644531 L 3.710938 -6.644531 L 4.769531 -5.945312 Z M 5.839844 0.210938 L 6.886719 0.894531 L 7.167969 0.894531 L 6.132812 0.210938 Z M 3.933594 0.210938 L 4.980469 0.894531 L 5.257812 0.894531 L 4.222656 0.210938 Z M 3.304688 0.210938 L 4.339844 0.894531 L 4.628906 0.894531 L 3.582031 0.210938 Z M 2.664062 0.210938 L 3.710938 0.894531 L 3.992188 0.894531 L 2.957031 0.210938 Z M 4.339844 -6.644531 L 5.386719 -5.957031 L 5.667969 -5.957031 L 4.628906 -6.644531 Z M 4.574219 0.210938 L 5.609375 0.894531 L 5.898438 0.894531 L 4.851562 0.210938 Z M 4.039062 -3.070312 L 5.085938 -2.386719 L 5.363281 -2.386719 L 4.328125 -3.070312 Z M 5.839844 -2.386719 L 5.839844 -2.441406 L 5.921875 -2.441406 L 4.96875 -3.070312 L 4.675781 -3.070312 L 5.710938 -2.386719 Z M 3.617188 -2.09375 L 4.46875 -1.535156 L 4.757812 -1.535156 L 3.617188 -2.28125 Z M 5.316406 -3.070312 L 6.269531 -2.441406 L 6.550781 -2.441406 L 5.597656 -3.070312 Z M 8.644531 -7.273438 L 7.492188 -8.039062 L 7.492188 -7.875 L 8.644531 -7.121094 Z M 7.480469 -5.050781 L 7.679688 -5.050781 L 6.644531 -5.734375 L 6.445312 -5.734375 Z M 4.980469 -6.644531 L 5.839844 -6.074219 L 5.839844 -6.257812 L 5.257812 -6.644531 Z M 4.003906 -4.769531 L 4.292969 -4.769531 L 3.617188 -5.210938 L 3.617188 -5.027344 Z M 3.617188 -1.863281 L 3.617188 -1.675781 L 3.828125 -1.535156 L 4.117188 -1.535156 Z M 5.839844 -6.644531 L 5.609375 -6.644531 L 5.839844 -6.492188 Z M 3.617188 -4.769531 L 3.664062 -4.769531 L 3.617188 -4.792969 Z M 3.617188 -4.769531 "/></g></g></g><g fill="#ffffff" fill-opacity="1"><g transform="translate(37.640108, 42.225478)"><g><path d="M 8.050781 -1.78125 C 8.050781 -1.78125 7.203125 -1.222656 5.550781 -1.222656 C 4.070312 -1.222656 2.722656 -2.429688 2.722656 -4.070312 C 2.722656 -5.746094 3.734375 -6.957031 5.410156 -6.957031 C 6.492188 -6.957031 7.421875 -6.363281 7.46875 -5.410156 L 8.773438 -5.410156 L 8.761719 -8.179688 L 7.457031 -8.179688 L 7.550781 -7.328125 C 7.503906 -7.492188 7.167969 -8.320312 5.164062 -8.320312 C 2.988281 -8.320312 1.164062 -6.457031 1.164062 -4.09375 C 1.164062 -1.570312 3.117188 0.140625 5.757812 0.140625 C 7.457031 0.140625 8.492188 -0.546875 8.492188 -0.546875 Z M 4.628906 -5.015625 L 3.433594 -5.804688 C 3.410156 -5.757812 3.375 -5.710938 3.339844 -5.667969 L 4.539062 -4.875 Z M 7.992188 -0.09375 L 9.15625 0.675781 C 9.226562 0.652344 9.285156 0.617188 9.34375 0.59375 L 8.179688 -0.164062 Z M 5.121094 -5.527344 L 3.945312 -6.304688 L 3.804688 -6.203125 L 4.992188 -5.421875 Z M 7.585938 0.0585938 L 8.726562 0.804688 L 8.933594 0.746094 L 7.785156 -0.0117188 Z M 4.851562 -5.28125 L 3.664062 -6.074219 C 3.628906 -6.027344 3.582031 -5.992188 3.546875 -5.957031 L 4.746094 -5.164062 Z M 4.445312 -4.722656 L 3.246094 -5.503906 L 3.1875 -5.363281 L 4.375 -4.574219 Z M 4.1875 -4.046875 L 3 -4.828125 L 2.976562 -4.652344 L 4.152344 -3.886719 Z M 4.117188 -3.675781 L 2.957031 -4.445312 L 2.933594 -4.269531 L 4.09375 -3.503906 Z M 9.714844 0.429688 L 8.539062 -0.335938 L 8.375 -0.257812 L 9.550781 0.511719 Z M 3.011719 -3.375 L 4.117188 -2.640625 C 4.105469 -2.710938 4.09375 -2.792969 4.09375 -2.863281 L 2.96875 -3.59375 Z M 5.445312 -5.734375 L 4.269531 -6.503906 L 4.117188 -6.421875 L 5.292969 -5.644531 C 5.339844 -5.675781 5.386719 -5.710938 5.445312 -5.734375 Z M 6.65625 0.277344 L 7.75 1 L 7.992188 0.964844 L 6.886719 0.234375 Z M 8.980469 -5.304688 L 10.132812 -4.550781 L 10.132812 -4.734375 L 8.96875 -5.503906 Z M 8.96875 -5.734375 L 10.132812 -4.96875 L 10.132812 -5.152344 L 8.96875 -5.921875 Z M 10.132812 -5.574219 L 8.96875 -6.339844 L 8.96875 -6.15625 L 10.132812 -5.386719 Z M 4.082031 -3.09375 L 4.082031 -3.28125 L 2.933594 -4.039062 C 2.933594 -3.980469 2.933594 -3.910156 2.945312 -3.839844 Z M 4.292969 -4.398438 L 3.105469 -5.175781 C 3.09375 -5.128906 3.082031 -5.074219 3.058594 -5.027344 L 4.246094 -4.246094 Z M 8.96875 -6.574219 L 10.121094 -5.804688 L 10.121094 -5.992188 L 8.96875 -6.757812 Z M 8.96875 -6.992188 L 10.121094 -6.222656 L 10.121094 -6.410156 L 8.96875 -7.179688 Z M 5.816406 -5.898438 L 4.675781 -6.65625 L 4.492188 -6.597656 L 5.644531 -5.828125 Z M 8.96875 -7.410156 L 10.121094 -6.65625 L 10.121094 -6.828125 L 8.96875 -7.597656 Z M 10.121094 -7.214844 L 8.96875 -7.980469 L 8.96875 -7.796875 L 10.121094 -7.039062 Z M 6.109375 0.335938 L 7.167969 1.035156 C 7.261719 1.035156 7.351562 1.023438 7.445312 1.023438 L 6.363281 0.3125 Z M 6.28125 -6.015625 L 5.1875 -6.738281 C 5.109375 -6.738281 5.027344 -6.726562 4.945312 -6.714844 L 6.074219 -5.96875 C 6.144531 -5.992188 6.210938 -6.003906 6.28125 -6.015625 Z M 7.144531 0.175781 L 8.273438 0.917969 C 8.34375 0.894531 8.410156 0.882812 8.480469 0.871094 L 7.339844 0.128906 Z M 3.234375 -2.804688 L 4.234375 -2.152344 L 4.164062 -2.386719 L 3.117188 -3.082031 C 3.152344 -2.988281 3.1875 -2.898438 3.234375 -2.804688 Z M 8.550781 -0.976562 L 9.597656 -0.289062 L 9.515625 -0.535156 L 8.46875 -1.222656 Z M 8.75 -0.464844 C 8.75 -0.464844 8.738281 -0.453125 8.726562 -0.453125 L 9.796875 0.257812 L 9.703125 0 L 8.667969 -0.675781 Z M 7.875 -5.199219 L 8.921875 -4.515625 L 9.203125 -4.515625 L 8.15625 -5.199219 Z M 8.515625 -5.199219 L 9.550781 -4.515625 L 9.832031 -4.515625 L 8.796875 -5.199219 Z M 6.804688 -6.0625 L 6.851562 -6.0625 L 5.898438 -6.691406 C 5.78125 -6.726562 5.65625 -6.738281 5.527344 -6.746094 L 6.585938 -6.050781 C 6.65625 -6.0625 6.726562 -6.0625 6.804688 -6.0625 Z M 5.480469 0.335938 L 6.480469 0.988281 C 6.585938 1 6.703125 1.023438 6.804688 1.023438 L 5.78125 0.347656 L 5.757812 0.347656 C 5.667969 0.347656 5.574219 0.347656 5.480469 0.335938 Z M 4.710938 0.246094 L 5.539062 0.792969 C 5.6875 0.835938 5.851562 0.882812 6.015625 0.917969 L 5.085938 0.300781 C 4.957031 0.289062 4.828125 0.269531 4.710938 0.246094 Z M 4.457031 -1.675781 C 4.421875 -1.722656 4.386719 -1.78125 4.363281 -1.839844 L 3.511719 -2.398438 C 3.769531 -2.082031 4.082031 -1.839844 4.457031 -1.675781 Z M 4.457031 -1.675781 "/></g></g></g><g fill="#ffffff" fill-opacity="1"><g transform="translate(47.971598, 42.225478)"><g><path d="M 1.070312 -6.851562 L 1.964844 -6.851562 L 1.964844 -1.328125 L 1.070312 -1.328125 L 1.070312 0 L 4.304688 0 L 4.304688 -1.328125 L 3.410156 -1.328125 L 3.410156 -6.851562 L 4.304688 -6.851562 L 4.304688 -8.179688 L 1.070312 -8.179688 Z M 3.617188 -5.128906 L 4.769531 -4.375 L 4.769531 -4.5625 L 3.617188 -5.316406 Z M 3.617188 -3.875 L 4.769531 -3.117188 L 4.769531 -3.304688 L 3.617188 -4.058594 Z M 3.617188 -3.035156 L 4.769531 -2.28125 L 4.769531 -2.464844 L 3.617188 -3.222656 Z M 3.617188 -4.292969 L 4.769531 -3.535156 L 4.769531 -3.722656 L 3.617188 -4.480469 Z M 3.617188 -4.710938 L 4.769531 -3.957031 L 4.769531 -4.140625 L 3.617188 -4.898438 Z M 4.515625 -7.46875 L 5.667969 -6.714844 L 5.667969 -6.898438 L 4.515625 -7.65625 Z M 3.617188 -5.96875 L 4.769531 -5.210938 L 4.769531 -5.398438 L 3.617188 -6.15625 Z M 3.617188 -6.386719 L 4.769531 -5.632812 L 4.769531 -5.816406 L 3.617188 -6.574219 Z M 4.515625 0.0585938 L 5.667969 0.824219 L 5.667969 0.640625 L 4.515625 -0.117188 Z M 4.515625 -0.347656 L 5.667969 0.40625 L 5.667969 0.222656 L 4.515625 -0.535156 Z M 4.515625 -7.050781 L 5.667969 -6.292969 L 5.667969 -6.480469 L 4.515625 -7.238281 Z M 3.617188 -2.199219 L 4.769531 -1.441406 L 4.769531 -1.628906 L 3.617188 -2.386719 Z M 3.617188 -5.550781 L 4.769531 -4.792969 L 4.769531 -4.980469 L 3.617188 -5.734375 Z M 3.617188 -2.617188 L 4.769531 -1.863281 L 4.769531 -2.046875 L 3.617188 -2.804688 Z M 3.617188 -3.457031 L 4.769531 -2.699219 L 4.769531 -2.886719 L 3.617188 -3.640625 Z M 4.515625 -0.769531 L 5.667969 -0.0117188 L 5.667969 -0.199219 L 4.515625 -0.953125 Z M 5.667969 -5.957031 L 5.667969 -6.0625 L 4.515625 -6.816406 L 4.515625 -6.644531 L 4.503906 -6.644531 L 5.539062 -5.957031 Z M 5.667969 -7.273438 L 4.515625 -8.039062 L 4.515625 -7.851562 L 5.667969 -7.097656 Z M 1.546875 0.210938 L 2.59375 0.894531 L 2.875 0.894531 L 1.839844 0.210938 Z M 2.828125 0.210938 L 3.863281 0.894531 L 4.152344 0.894531 L 3.105469 0.210938 Z M 3.457031 0.210938 L 4.503906 0.894531 L 4.78125 0.894531 L 3.746094 0.210938 Z M 3.863281 -6.644531 L 4.910156 -5.957031 L 5.1875 -5.957031 L 4.152344 -6.644531 Z M 4.09375 0.210938 L 5.128906 0.894531 L 5.421875 0.894531 L 4.375 0.210938 Z M 2.1875 0.210938 L 3.234375 0.894531 L 3.511719 0.894531 L 2.464844 0.210938 Z M 3.992188 -1.535156 L 4.269531 -1.535156 L 3.617188 -1.964844 L 3.617188 -1.78125 Z M 4.515625 -1.1875 L 4.769531 -1.023438 L 4.769531 -1.199219 L 4.515625 -1.371094 Z M 3.617188 -1.535156 L 3.628906 -1.535156 L 3.617188 -1.546875 Z M 3.617188 -1.535156 "/></g></g></g><g fill="#ffffff" fill-opacity="1"><g transform="translate(53.370033, 42.225478)"><g><path d="M 0.582031 0 L 3.640625 0 L 3.640625 -1.328125 L 2.945312 -1.328125 L 3.304688 -2.175781 L 6.386719 -2.175781 L 6.757812 -1.328125 L 6.132812 -1.328125 L 6.132812 0 L 9.167969 0 L 9.167969 -1.328125 L 8.285156 -1.328125 L 5.210938 -8.179688 L 4.539062 -8.179688 L 1.464844 -1.328125 L 0.582031 -1.328125 Z M 4.851562 -5.769531 L 5.898438 -3.328125 L 3.804688 -3.328125 Z M 3.851562 -0.152344 L 5.003906 0.605469 L 5.003906 0.417969 L 3.851562 -0.335938 Z M 3.851562 -0.570312 L 5.003906 0.1875 L 5.003906 0 L 3.851562 -0.757812 Z M 3.339844 -1.734375 L 3.652344 -1.535156 L 3.851562 -1.535156 L 3.851562 -1.40625 L 4.539062 -0.953125 L 4.59375 -1.105469 L 3.421875 -1.886719 C 3.398438 -1.828125 3.363281 -1.792969 3.339844 -1.734375 Z M 9.378906 -0.277344 L 10.527344 0.476562 L 10.527344 0.289062 L 9.378906 -0.464844 Z M 9.378906 -0.699219 L 10.527344 0.0585938 L 10.527344 -0.117188 L 9.378906 -0.882812 Z M 10.527344 0.894531 L 10.527344 0.710938 L 9.378906 -0.046875 L 9.378906 0.140625 L 10.519531 0.894531 Z M 5.003906 0.894531 L 5.003906 0.835938 L 3.851562 0.0703125 L 3.851562 0.210938 L 3.757812 0.210938 L 4.804688 0.894531 Z M 1.222656 0.210938 L 2.257812 0.894531 L 2.546875 0.894531 L 1.511719 0.210938 Z M 1.851562 0.210938 L 2.898438 0.894531 L 3.1875 0.894531 L 2.140625 0.210938 Z M 8.203125 0.210938 L 9.25 0.894531 L 9.539062 0.894531 L 8.492188 0.210938 Z M 3.128906 0.210938 L 4.164062 0.894531 L 4.457031 0.894531 L 3.410156 0.210938 Z M 3.640625 -1.964844 L 4.675781 -1.28125 L 4.96875 -1.28125 L 3.921875 -1.964844 Z M 8.84375 0.210938 L 9.890625 0.894531 L 10.167969 0.894531 L 9.132812 0.210938 Z M 4.269531 -1.964844 L 5.316406 -1.28125 L 5.597656 -1.28125 L 4.5625 -1.964844 Z M 2.488281 0.210938 L 3.535156 0.894531 L 3.816406 0.894531 L 2.78125 0.210938 Z M 7.574219 0.210938 L 8.609375 0.894531 L 8.902344 0.894531 L 7.851562 0.210938 Z M 6.933594 0.210938 L 7.980469 0.894531 L 8.261719 0.894531 L 7.226562 0.210938 Z M 6.933594 -4.816406 L 7.957031 -4.140625 L 7.828125 -4.410156 L 6.816406 -5.074219 Z M 5.886719 -7.191406 L 6.898438 -6.515625 L 6.78125 -6.78125 L 5.757812 -7.457031 Z M 7.203125 -4.222656 L 8.214844 -3.546875 L 8.097656 -3.816406 L 7.085938 -4.492188 Z M 7.738281 -3.023438 L 8.75 -2.363281 L 8.621094 -2.628906 L 7.621094 -3.292969 Z M 6.679688 -5.410156 L 7.679688 -4.746094 L 7.5625 -5.003906 L 6.550781 -5.675781 Z M 5.003906 -0.359375 L 4.445312 -0.734375 L 4.457031 -0.78125 L 3.851562 -1.175781 L 3.851562 -0.988281 L 5.003906 -0.234375 Z M 6.410156 -6.003906 L 7.421875 -5.328125 L 7.304688 -5.597656 L 6.292969 -6.257812 Z M 7.46875 -3.628906 L 8.480469 -2.957031 L 8.367188 -3.222656 L 7.351562 -3.886719 Z M 6.144531 -6.597656 L 7.15625 -5.921875 L 7.039062 -6.191406 L 6.027344 -6.851562 Z M 8.003906 -2.441406 L 9.003906 -1.78125 L 8.890625 -2.035156 L 7.886719 -2.699219 Z M 4.46875 -4.351562 L 5.539062 -3.652344 L 5.421875 -3.910156 L 4.539062 -4.492188 Z M 5.539062 -7.96875 L 5.644531 -7.726562 L 6.65625 -7.0625 L 6.5625 -7.285156 Z M 4.910156 -1.964844 L 5.921875 -1.292969 L 5.921875 -1.488281 L 5.1875 -1.964844 Z M 4.328125 -4.015625 L 5.0625 -3.535156 L 5.351562 -3.535156 L 4.398438 -4.164062 Z M 8.261719 -1.851562 L 8.738281 -1.535156 L 9.015625 -1.535156 L 8.144531 -2.105469 Z M 6.433594 -1.535156 L 6.398438 -1.582031 L 5.828125 -1.964844 L 5.550781 -1.964844 L 6.203125 -1.535156 Z M 4.605469 -4.675781 L 5.269531 -4.234375 L 5.152344 -4.503906 L 4.675781 -4.816406 Z M 4.433594 -3.535156 L 4.722656 -3.535156 L 4.257812 -3.839844 L 4.1875 -3.6875 Z M 4.746094 -5.003906 L 5.015625 -4.816406 L 4.910156 -5.085938 L 4.816406 -5.140625 Z M 4.746094 -5.003906 "/></g></g></g><g fill="#ffffff" fill-opacity="1"><g transform="translate(63.119795, 42.225478)"><g><path d="M 7.285156 0 L 7.285156 -2.234375 L 6.050781 -2.234375 L 6.050781 -1.328125 L 3.410156 -1.328125 L 3.410156 -6.851562 L 4.652344 -6.851562 L 4.652344 -8.179688 L 1.070312 -8.179688 L 1.070312 -6.851562 L 1.964844 -6.851562 L 1.964844 -1.328125 L 1.070312 -1.328125 L 1.070312 0 Z M 7.492188 -0.3125 L 8.644531 0.441406 L 8.644531 0.257812 L 7.492188 -0.5 Z M 3.617188 -4.539062 L 4.769531 -3.78125 L 4.769531 -3.96875 L 3.617188 -4.722656 Z M 3.617188 -4.957031 L 4.769531 -4.199219 L 4.769531 -4.386719 L 3.617188 -5.140625 Z M 3.617188 -5.375 L 4.769531 -4.617188 L 4.769531 -4.804688 L 3.617188 -5.5625 Z M 3.617188 -5.792969 L 4.769531 -5.039062 L 4.769531 -5.222656 L 3.617188 -5.980469 Z M 3.617188 -4.117188 L 4.769531 -3.363281 L 4.769531 -3.546875 L 3.617188 -4.304688 Z M 3.617188 -6.210938 L 4.769531 -5.457031 L 4.769531 -5.644531 L 3.617188 -6.398438 Z M 3.617188 -3.28125 L 4.769531 -2.523438 L 4.769531 -2.710938 L 3.617188 -3.46875 Z M 7.492188 -1.152344 L 8.644531 -0.382812 L 8.644531 -0.570312 L 7.492188 -1.339844 Z M 7.492188 -0.734375 L 8.644531 0.0234375 L 8.644531 -0.152344 L 7.492188 -0.917969 Z M 4.863281 -7.074219 L 6.015625 -6.304688 L 6.015625 -6.492188 L 4.863281 -7.261719 Z M 4.863281 -7.492188 L 6.015625 -6.726562 L 6.015625 -6.910156 L 4.863281 -7.679688 Z M 3.617188 -2.441406 L 4.769531 -1.6875 L 4.769531 -1.875 L 3.617188 -2.628906 Z M 7.492188 0.105469 L 8.644531 0.859375 L 8.644531 0.675781 L 7.492188 -0.0820312 Z M 3.617188 -2.863281 L 4.769531 -2.105469 L 4.769531 -2.292969 L 3.617188 -3.046875 Z M 7.492188 -1.546875 L 8.644531 -0.78125 L 8.644531 -0.964844 L 7.492188 -1.734375 Z M 3.617188 -3.699219 L 4.769531 -2.945312 L 4.769531 -3.128906 L 3.617188 -3.886719 Z M 6.015625 -5.957031 L 6.015625 -6.074219 L 4.863281 -6.839844 L 4.863281 -6.65625 L 5.921875 -5.957031 Z M 4.769531 -5.957031 L 4.933594 -5.957031 L 3.886719 -6.644531 L 3.617188 -6.644531 L 3.617188 -6.632812 L 4.769531 -5.875 Z M 1.929688 0.210938 L 2.96875 0.894531 L 3.257812 0.894531 L 2.210938 0.210938 Z M 2.558594 0.210938 L 3.605469 0.894531 L 3.886719 0.894531 L 2.851562 0.210938 Z M 3.839844 0.210938 L 4.875 0.894531 L 5.164062 0.894531 L 4.117188 0.210938 Z M 4.46875 0.210938 L 5.515625 0.894531 L 5.792969 0.894531 L 4.757812 0.210938 Z M 5.734375 0.210938 L 6.78125 0.894531 L 7.0625 0.894531 L 6.027344 0.210938 Z M 5.109375 0.210938 L 6.144531 0.894531 L 6.433594 0.894531 L 5.386719 0.210938 Z M 4.246094 -6.644531 L 5.28125 -5.957031 L 5.5625 -5.957031 L 4.527344 -6.644531 Z M 7.015625 0.210938 L 8.050781 0.894531 L 8.332031 0.894531 L 7.292969 0.210938 Z M 6.375 0.210938 L 7.421875 0.894531 L 7.703125 0.894531 L 6.65625 0.210938 Z M 3.199219 0.210938 L 4.246094 0.894531 L 4.527344 0.894531 L 3.480469 0.210938 Z M 6.015625 -7.273438 L 4.863281 -8.039062 L 4.863281 -7.875 L 6.015625 -7.109375 Z M 3.617188 -2.023438 L 4.363281 -1.535156 L 4.640625 -1.535156 L 3.617188 -2.210938 Z M 2.421875 0.894531 L 2.617188 0.894531 L 1.582031 0.210938 L 1.382812 0.210938 Z M 8.644531 -1.328125 L 7.492188 -2.09375 L 7.492188 -1.917969 L 8.644531 -1.152344 Z M 3.617188 -1.792969 L 3.617188 -1.605469 L 3.734375 -1.535156 L 4.015625 -1.535156 Z M 3.617188 -1.792969 "/></g></g></g><g fill="#ffffff" fill-opacity="1"><g transform="translate(71.486458, 42.225478)"><g/></g></g><g fill="#ffffff" fill-opacity="1"><g transform="translate(13.149254, 58.292231)"><g><path d="M 1.070312 -6.851562 L 1.964844 -6.851562 L 1.964844 -1.328125 L 1.070312 -1.328125 L 1.070312 0 L 4.792969 0 L 4.792969 -1.328125 L 3.410156 -1.328125 L 3.410156 -2.375 L 4.1875 -2.375 C 6.65625 -2.375 7.738281 -3.558594 7.738281 -5.269531 C 7.738281 -6.980469 6.644531 -8.179688 4.46875 -8.179688 L 1.070312 -8.179688 Z M 4.363281 -6.851562 C 5.722656 -6.851562 6.179688 -6.167969 6.179688 -5.269531 C 6.179688 -4.375 5.710938 -3.652344 4.363281 -3.652344 L 3.410156 -3.652344 L 3.410156 -6.851562 Z M 3.617188 -6.644531 L 3.617188 -6.457031 L 4.769531 -5.699219 L 4.769531 -5.898438 L 3.640625 -6.644531 Z M 4.769531 -4.863281 L 4.769531 -5.0625 L 3.617188 -5.816406 L 3.617188 -5.621094 Z M 4.769531 -5.28125 L 4.769531 -5.480469 L 3.617188 -6.234375 L 3.617188 -6.039062 Z M 4.769531 -4.027344 L 4.769531 -4.222656 L 3.617188 -4.980469 L 3.617188 -4.78125 Z M 8.433594 -2.453125 L 8.539062 -2.570312 L 7.351562 -3.351562 L 7.25 -3.222656 Z M 6.15625 0.234375 L 6.15625 0.0351562 L 5.003906 -0.710938 L 5.003906 -0.523438 Z M 7.085938 -1.664062 C 7.15625 -1.675781 7.214844 -1.699219 7.285156 -1.722656 L 6.132812 -2.476562 L 5.933594 -2.410156 Z M 8.820312 -3.035156 C 8.84375 -3.082031 8.878906 -3.128906 8.890625 -3.175781 L 7.703125 -3.957031 L 7.644531 -3.804688 Z M 7.503906 -1.804688 L 7.667969 -1.886719 L 6.503906 -2.652344 C 6.457031 -2.617188 6.398438 -2.59375 6.339844 -2.570312 Z M 9.085938 -4.105469 C 9.097656 -4.175781 9.097656 -4.234375 9.097656 -4.292969 L 7.933594 -5.050781 C 7.933594 -4.992188 7.933594 -4.933594 7.921875 -4.875 Z M 7.863281 -1.988281 L 8.003906 -2.082031 L 6.828125 -2.851562 L 6.691406 -2.757812 Z M 8.65625 -2.722656 L 8.738281 -2.851562 L 7.539062 -3.628906 L 7.457031 -3.503906 Z M 8.957031 -3.363281 C 8.96875 -3.421875 8.992188 -3.46875 9.003906 -3.511719 L 7.820312 -4.292969 C 7.808594 -4.234375 7.796875 -4.1875 7.773438 -4.140625 Z M 6.15625 -0.1875 L 6.15625 -0.371094 L 5.003906 -1.128906 L 5.003906 -0.941406 Z M 4.769531 -4.445312 L 4.769531 -4.628906 L 3.617188 -5.386719 L 3.617188 -5.199219 Z M 6.15625 0.652344 L 6.15625 0.464844 L 5.003906 -0.289062 L 5.003906 -0.105469 Z M 9.074219 -4.722656 L 7.933594 -5.46875 C 7.933594 -5.410156 7.945312 -5.339844 7.945312 -5.28125 L 9.085938 -4.527344 C 9.085938 -4.59375 9.085938 -4.664062 9.074219 -4.722656 Z M 8.296875 -2.304688 L 7.109375 -3.082031 L 6.992188 -2.976562 L 8.167969 -2.210938 Z M 9.039062 -3.722656 C 9.050781 -3.78125 9.0625 -3.839844 9.0625 -3.898438 L 7.898438 -4.652344 L 7.875 -4.503906 Z M 6.15625 0.894531 L 6.15625 0.871094 L 5.003906 0.117188 L 5.003906 0.210938 L 4.839844 0.210938 L 5.886719 0.894531 Z M 6.609375 -1.558594 L 6.828125 -1.59375 L 5.699219 -2.339844 L 5.492188 -2.292969 Z M 6.074219 -1.488281 L 6.316406 -1.511719 L 5.210938 -2.234375 L 4.980469 -2.199219 Z M 8.980469 -5.199219 L 7.886719 -5.921875 L 7.921875 -5.710938 L 9.039062 -4.980469 C 9.027344 -5.0625 9.003906 -5.128906 8.980469 -5.199219 Z M 2.710938 0.894531 L 3 0.894531 L 1.953125 0.210938 L 1.664062 0.210938 Z M 5.46875 -1.476562 L 5.746094 -1.476562 L 4.675781 -2.175781 C 4.59375 -2.175781 4.503906 -2.164062 4.421875 -2.164062 Z M 4.617188 0.894531 L 4.898438 0.894531 L 3.863281 0.210938 L 3.570312 0.210938 Z M 3.992188 0.894531 L 4.269531 0.894531 L 3.222656 0.210938 L 2.945312 0.210938 Z M 3.351562 0.894531 L 3.628906 0.894531 L 2.582031 0.210938 L 2.304688 0.210938 Z M 5.027344 -5.957031 L 5.304688 -5.957031 L 4.257812 -6.644531 L 3.980469 -6.644531 Z M 5.257812 0.894531 L 5.539062 0.894531 L 4.492188 0.210938 L 4.210938 0.210938 Z M 8.773438 -5.769531 L 7.761719 -6.421875 C 7.785156 -6.351562 7.820312 -6.28125 7.828125 -6.203125 L 8.890625 -5.503906 Z M 5.109375 -1.476562 L 4.070312 -2.164062 L 3.78125 -2.164062 L 4.734375 -1.535156 L 5.003906 -1.535156 L 5.003906 -1.476562 Z M 4.652344 -3.875 L 3.617188 -4.5625 L 3.617188 -4.363281 L 4.386719 -3.863281 C 4.480469 -3.863281 4.574219 -3.863281 4.652344 -3.875 Z M 5.667969 -5.957031 L 5.828125 -5.957031 L 5.746094 -6.085938 L 5.015625 -6.5625 C 4.898438 -6.597656 4.769531 -6.621094 4.640625 -6.632812 Z M 4.09375 -1.535156 L 4.386719 -1.535156 L 3.617188 -2.046875 L 3.617188 -1.851562 Z M 3.617188 -4.140625 L 3.617188 -3.945312 L 3.746094 -3.863281 L 4.039062 -3.863281 Z M 3.617188 -1.535156 L 3.757812 -1.535156 L 3.617188 -1.628906 Z M 3.617188 -1.535156 "/></g></g></g><g fill="#ffffff" fill-opacity="1"><g transform="translate(21.561042, 58.292231)"><g><path d="M 1.359375 -6.851562 L 2.246094 -6.851562 L 2.246094 -1.328125 L 1.359375 -1.328125 L 1.359375 0 L 4.804688 0 L 4.804688 -1.328125 L 3.6875 -1.328125 L 3.6875 -2.375 L 4.585938 -2.375 C 4.734375 -2.375 4.875 -2.375 5.015625 -2.386719 C 6.003906 -1.828125 5.886719 0.046875 7.921875 0.046875 C 8.398438 0.046875 8.703125 -0.0234375 8.703125 -0.0234375 L 8.703125 -1.304688 L 8.375 -1.304688 C 7.386719 -1.304688 7.226562 -2.210938 6.585938 -2.757812 C 7.667969 -3.246094 8.132812 -4.140625 8.132812 -5.269531 C 8.132812 -6.980469 7.039062 -8.179688 4.863281 -8.179688 L 1.359375 -8.179688 Z M 4.757812 -6.851562 C 6.121094 -6.851562 6.574219 -6.167969 6.574219 -5.269531 C 6.574219 -4.375 6.109375 -3.652344 4.757812 -3.652344 L 3.6875 -3.652344 L 3.6875 -6.851562 Z M 9.121094 -2.875 L 7.933594 -3.652344 C 7.898438 -3.617188 7.875 -3.570312 7.839844 -3.523438 L 9.039062 -2.734375 C 9.074219 -2.78125 9.097656 -2.828125 9.121094 -2.875 Z M 8.679688 -2.328125 L 7.480469 -3.117188 C 7.445312 -3.082031 7.410156 -3.035156 7.363281 -3 L 8.5625 -2.222656 Z M 9.492188 -4.304688 L 8.332031 -5.074219 C 8.332031 -5.015625 8.332031 -4.945312 8.320312 -4.886719 L 9.480469 -4.117188 C 9.492188 -4.175781 9.492188 -4.246094 9.492188 -4.304688 Z M 8.921875 -2.582031 L 7.726562 -3.375 L 7.632812 -3.257812 L 8.820312 -2.464844 Z M 9.285156 -3.1875 L 8.097656 -3.96875 L 8.027344 -3.828125 L 9.214844 -3.046875 Z M 9.457031 -3.910156 L 8.296875 -4.675781 L 8.261719 -4.515625 L 9.4375 -3.734375 C 9.445312 -3.792969 9.457031 -3.851562 9.457031 -3.910156 Z M 5.015625 0.046875 L 6.167969 0.804688 L 6.167969 0.617188 L 5.015625 -0.140625 Z M 5.015625 -0.371094 L 6.167969 0.382812 L 6.167969 0.199219 L 5.015625 -0.558594 Z M 9.390625 -3.535156 L 8.214844 -4.316406 L 8.167969 -4.164062 L 9.355469 -3.375 Z M 8.386719 -2.09375 L 7.203125 -2.886719 C 7.15625 -2.851562 7.109375 -2.816406 7.0625 -2.792969 L 8.25 -2.011719 Z M 8.910156 0.09375 L 10.0625 0.859375 L 10.0625 0.675781 L 8.910156 -0.0820312 Z M 8.910156 -0.734375 L 10.0625 0.0234375 L 10.0625 -0.164062 L 8.910156 -0.917969 Z M 8.910156 -0.3125 L 10.0625 0.441406 L 10.0625 0.257812 L 8.910156 -0.5 Z M 5.015625 -0.792969 L 6.167969 -0.0351562 L 6.167969 -0.222656 L 5.015625 -0.976562 Z M 3.898438 -6.132812 L 5.050781 -5.375 L 5.050781 -5.5625 L 3.898438 -6.316406 Z M 3.898438 -4.875 L 5.050781 -4.117188 L 5.050781 -4.304688 L 3.898438 -5.0625 Z M 3.898438 -5.292969 L 5.050781 -4.539062 L 5.050781 -4.722656 L 3.898438 -5.480469 Z M 3.898438 -5.710938 L 5.050781 -4.957031 L 5.050781 -5.140625 L 3.898438 -5.898438 Z M 9.46875 -4.734375 L 8.332031 -5.492188 C 8.34375 -5.421875 8.34375 -5.363281 8.34375 -5.292969 L 9.480469 -4.539062 C 9.480469 -4.605469 9.46875 -4.675781 9.46875 -4.734375 Z M 3.898438 -6.644531 L 3.898438 -6.550781 L 5.050781 -5.792969 L 5.050781 -5.957031 L 5.085938 -5.957031 L 4.046875 -6.644531 Z M 9.378906 -5.222656 L 8.285156 -5.945312 C 8.296875 -5.875 8.308594 -5.804688 8.308594 -5.734375 L 9.425781 -5.003906 Z M 9.796875 0.917969 L 8.691406 0.1875 L 8.46875 0.222656 L 9.550781 0.929688 C 9.644531 0.929688 9.726562 0.917969 9.796875 0.917969 Z M 5.527344 -1.476562 L 4.492188 -2.164062 L 4.199219 -2.164062 L 5.246094 -1.476562 Z M 3.363281 0.210938 L 4.398438 0.894531 L 4.6875 0.894531 L 3.640625 0.210938 Z M 2.722656 0.210938 L 3.757812 0.894531 L 4.046875 0.894531 L 3 0.210938 Z M 4.628906 0.210938 L 5.667969 0.894531 L 5.957031 0.894531 L 4.910156 0.210938 Z M 2.082031 0.210938 L 3.128906 0.894531 L 3.410156 0.894531 L 2.375 0.210938 Z M 3.992188 0.210938 L 5.039062 0.894531 L 5.316406 0.894531 L 4.28125 0.210938 Z M 9.15625 -5.78125 L 8.144531 -6.445312 C 8.179688 -6.375 8.191406 -6.292969 8.214844 -6.210938 L 9.273438 -5.515625 C 9.238281 -5.609375 9.203125 -5.699219 9.15625 -5.78125 Z M 5.050781 -3.875 L 5.050781 -3.886719 L 3.898438 -4.640625 L 3.898438 -4.457031 L 4.804688 -3.863281 C 4.886719 -3.863281 4.96875 -3.863281 5.050781 -3.875 Z M 9.203125 0.941406 L 8.15625 0.246094 C 8.074219 0.257812 8.003906 0.257812 7.921875 0.257812 L 7.875 0.257812 L 8.867188 0.90625 Z M 4.398438 -6.644531 L 5.445312 -5.957031 L 5.722656 -5.957031 L 4.675781 -6.644531 Z M 6.222656 -5.957031 L 6.121094 -6.109375 L 5.457031 -6.550781 C 5.328125 -6.585938 5.199219 -6.609375 5.050781 -6.632812 L 6.074219 -5.957031 Z M 7.921875 -1.839844 L 8.050781 -1.894531 L 7.050781 -2.558594 C 7.144531 -2.453125 7.214844 -2.351562 7.285156 -2.269531 C 7.292969 -2.246094 7.304688 -2.222656 7.328125 -2.199219 L 7.992188 -1.757812 Z M 4.527344 -1.535156 L 4.804688 -1.535156 L 3.898438 -2.128906 L 3.898438 -1.941406 Z M 8.355469 -6.667969 L 7.910156 -6.957031 L 8.027344 -6.726562 L 8.933594 -6.132812 C 8.773438 -6.328125 8.574219 -6.515625 8.355469 -6.667969 Z M 3.898438 -4.222656 L 3.898438 -4.039062 L 4.164062 -3.863281 L 4.457031 -3.863281 Z M 3.898438 -1.535156 L 4.164062 -1.535156 L 3.898438 -1.710938 Z M 4.96875 -2.164062 C 4.933594 -2.152344 4.886719 -2.152344 4.851562 -2.152344 L 5.234375 -1.894531 C 5.152344 -2 5.0625 -2.09375 4.96875 -2.164062 Z M 5.015625 -1.210938 L 5.050781 -1.1875 L 5.050781 -1.371094 L 5.015625 -1.394531 Z M 5.015625 -1.210938 "/></g></g></g><g fill="#ffffff" fill-opacity="1"><g transform="translate(31.334073, 58.292231)"><g><path d="M 1.164062 -4.09375 C 1.164062 -1.675781 3.023438 0.128906 5.527344 0.128906 C 8.027344 0.128906 9.902344 -1.6875 9.902344 -4.09375 C 9.902344 -6.539062 8.0625 -8.320312 5.527344 -8.320312 C 3.070312 -8.320312 1.164062 -6.457031 1.164062 -4.09375 Z M 2.722656 -4.070312 C 2.722656 -5.746094 3.921875 -7.015625 5.539062 -7.015625 C 7.179688 -7.015625 8.355469 -5.746094 8.355469 -4.070312 C 8.355469 -2.410156 7.121094 -1.140625 5.539062 -1.140625 C 3.957031 -1.140625 2.722656 -2.429688 2.722656 -4.070312 Z M 4.398438 -4.5625 L 3.210938 -5.351562 L 3.140625 -5.199219 L 4.328125 -4.410156 Z M 4.269531 -4.234375 L 3.070312 -5.015625 C 3.058594 -4.96875 3.046875 -4.910156 3.023438 -4.851562 L 4.210938 -4.070312 Z M 10.402344 -0.605469 L 9.203125 -1.394531 C 9.167969 -1.347656 9.144531 -1.304688 9.109375 -1.269531 L 10.308594 -0.476562 Z M 9.925781 -0.0820312 L 8.738281 -0.871094 L 8.609375 -0.757812 L 9.796875 0.0234375 Z M 3.722656 -6.074219 L 4.910156 -5.292969 L 5.027344 -5.398438 L 3.839844 -6.191406 C 3.804688 -6.15625 3.757812 -6.121094 3.722656 -6.074219 Z M 9.679688 -2.152344 L 10.867188 -1.359375 L 10.9375 -1.511719 L 9.738281 -2.292969 Z M 3.492188 -5.804688 L 4.6875 -5.027344 L 4.78125 -5.140625 L 3.59375 -5.933594 Z M 3.304688 -5.515625 L 4.492188 -4.734375 L 4.574219 -4.863281 L 3.386719 -5.65625 C 3.351562 -5.609375 3.328125 -5.5625 3.304688 -5.515625 Z M 4.164062 -3.886719 L 2.988281 -4.652344 L 2.957031 -4.492188 L 4.128906 -3.710938 Z M 9.320312 -1.546875 L 10.519531 -0.757812 C 10.550781 -0.804688 10.574219 -0.847656 10.609375 -0.882812 L 9.414062 -1.675781 C 9.378906 -1.640625 9.355469 -1.59375 9.320312 -1.546875 Z M 8.878906 -1 L 10.0625 -0.222656 L 10.167969 -0.335938 L 8.980469 -1.117188 Z M 11.226562 -2.570312 L 10.050781 -3.351562 L 10.015625 -3.175781 L 11.191406 -2.410156 Z M 5.316406 -5.632812 L 4.140625 -6.410156 L 4.003906 -6.316406 L 5.1875 -5.527344 Z M 6.050781 -5.992188 L 4.921875 -6.738281 L 4.710938 -6.679688 L 5.863281 -5.921875 Z M 2.933594 -4.082031 L 4.082031 -3.328125 C 4.09375 -3.386719 4.09375 -3.445312 4.09375 -3.503906 L 2.933594 -4.269531 Z M 9.632812 0.140625 L 8.457031 -0.628906 L 8.320312 -0.535156 L 9.503906 0.246094 Z M 10.785156 -1.1875 L 9.585938 -1.976562 L 9.515625 -1.839844 L 10.703125 -1.058594 Z M 9.332031 0.359375 L 8.144531 -0.417969 C 8.097656 -0.382812 8.050781 -0.347656 8.003906 -0.324219 L 9.179688 0.441406 Z M 11.25 -3.398438 L 10.109375 -4.152344 L 10.109375 -4.09375 C 10.109375 -4.046875 10.097656 -4.003906 10.097656 -3.96875 L 11.261719 -3.199219 C 11.261719 -3.269531 11.261719 -3.328125 11.25 -3.398438 Z M 11.15625 -2.199219 L 9.972656 -2.976562 L 9.9375 -2.828125 L 11.109375 -2.046875 Z M 5.65625 -5.828125 L 4.492188 -6.597656 C 4.433594 -6.574219 4.375 -6.550781 4.328125 -6.515625 L 5.503906 -5.746094 Z M 9.820312 -2.476562 L 11.007812 -1.699219 C 11.019531 -1.746094 11.042969 -1.792969 11.054688 -1.851562 L 9.867188 -2.628906 C 9.855469 -2.570312 9.832031 -2.523438 9.820312 -2.476562 Z M 11.25 -2.96875 L 10.085938 -3.734375 C 10.085938 -3.675781 10.074219 -3.617188 10.074219 -3.558594 L 11.25 -2.792969 Z M 11.203125 -3.839844 L 10.085938 -4.585938 C 10.085938 -4.515625 10.097656 -4.445312 10.097656 -4.386719 L 11.238281 -3.628906 Z M 2.957031 -3.652344 L 4.082031 -2.910156 L 4.082031 -3.09375 L 2.945312 -3.851562 C 2.945312 -3.78125 2.945312 -3.710938 2.957031 -3.652344 Z M 8.597656 0.722656 L 7.445312 -0.0351562 L 7.273438 0.0234375 L 8.410156 0.78125 C 8.480469 0.769531 8.539062 0.746094 8.597656 0.722656 Z M 8.980469 0.546875 L 7.820312 -0.210938 L 7.65625 -0.140625 L 8.820312 0.628906 Z M 7.703125 0.953125 L 6.585938 0.222656 C 6.515625 0.246094 6.433594 0.257812 6.363281 0.269531 L 7.46875 0.988281 Z M 8.179688 0.859375 L 7.039062 0.105469 C 6.96875 0.117188 6.910156 0.140625 6.839844 0.164062 L 7.980469 0.90625 C 8.050781 0.882812 8.121094 0.871094 8.179688 0.859375 Z M 3.070312 -3.152344 L 4.140625 -2.441406 L 4.105469 -2.652344 L 3.011719 -3.386719 C 3.023438 -3.304688 3.046875 -3.234375 3.070312 -3.152344 Z M 6.527344 -6.085938 L 5.445312 -6.804688 C 5.363281 -6.804688 5.269531 -6.792969 5.1875 -6.78125 L 6.304688 -6.050781 C 6.375 -6.074219 6.457031 -6.074219 6.527344 -6.085938 Z M 11.109375 -4.328125 L 10.003906 -5.050781 L 10.050781 -4.839844 L 11.167969 -4.105469 C 11.144531 -4.175781 11.121094 -4.246094 11.109375 -4.328125 Z M 10.925781 -4.863281 L 9.878906 -5.5625 L 9.949219 -5.328125 L 11.019531 -4.617188 C 10.996094 -4.699219 10.960938 -4.78125 10.925781 -4.863281 Z M 6.921875 1.023438 C 6.992188 1.023438 7.074219 1.023438 7.144531 1.011719 L 6.074219 0.300781 L 5.816406 0.324219 L 6.875 1.023438 Z M 6.933594 -6.121094 C 7.003906 -6.121094 7.0625 -6.121094 7.132812 -6.109375 L 6.203125 -6.726562 C 6.074219 -6.757812 5.945312 -6.78125 5.816406 -6.792969 L 6.839844 -6.121094 Z M 6.492188 1 L 5.480469 0.335938 C 5.375 0.335938 5.28125 0.324219 5.175781 0.324219 L 6.15625 0.964844 Z M 3.351562 -2.546875 L 4.304688 -1.917969 C 4.269531 -2 4.234375 -2.082031 4.210938 -2.164062 L 3.199219 -2.839844 C 3.246094 -2.746094 3.292969 -2.640625 3.351562 -2.546875 Z M 10.5625 -5.515625 L 9.632812 -6.132812 C 9.679688 -6.050781 9.714844 -5.957031 9.761719 -5.863281 L 10.75 -5.210938 C 10.691406 -5.316406 10.632812 -5.421875 10.5625 -5.515625 Z M 5.621094 0.847656 L 4.757812 0.277344 C 4.617188 0.257812 4.492188 0.234375 4.363281 0.199219 L 5.003906 0.628906 C 5.199219 0.710938 5.398438 0.792969 5.621094 0.847656 Z M 9.46875 -6.621094 L 9.261719 -6.746094 C 9.332031 -6.65625 9.402344 -6.550781 9.457031 -6.445312 L 10.261719 -5.921875 C 10.027344 -6.191406 9.761719 -6.421875 9.46875 -6.621094 Z M 4.492188 -1.558594 L 4.46875 -1.582031 L 3.757812 -2.058594 C 3.96875 -1.851562 4.210938 -1.675781 4.492188 -1.558594 Z M 4.492188 -1.558594 "/></g></g></g><g fill="#ffffff" fill-opacity="1"><g transform="translate(42.398538, 58.292231)"><g><path d="M 1.164062 -6.851562 L 2.257812 -6.851562 L 2.09375 -1.328125 L 1.164062 -1.328125 L 1.164062 0 L 4.386719 0 L 4.386719 -1.328125 L 3.46875 -1.328125 L 3.492188 -4.851562 L 5.863281 0 L 6.714844 0 L 9.0625 -4.933594 L 9.085938 -1.328125 L 8.179688 -1.328125 L 8.179688 0 L 11.402344 0 L 11.402344 -1.328125 L 10.472656 -1.328125 L 10.320312 -6.851562 L 11.414062 -6.851562 L 11.414062 -8.179688 L 9.445312 -8.179688 L 6.328125 -2.257812 L 3.128906 -8.179688 L 1.164062 -8.179688 Z M 6.980469 -0.0820312 L 8.167969 0.699219 L 8.238281 0.558594 L 7.050781 -0.222656 Z M 4.828125 -1.628906 L 4.78125 -1.710938 L 3.675781 -2.441406 L 3.675781 -2.257812 L 4.828125 -1.5 Z M 10.539062 -6.109375 L 11.691406 -5.339844 L 11.691406 -5.539062 L 10.527344 -6.292969 C 10.527344 -6.234375 10.539062 -6.167969 10.539062 -6.109375 Z M 11.609375 0.0351562 L 12.761719 0.792969 L 12.761719 0.605469 L 11.609375 -0.152344 Z M 11.609375 -0.792969 L 12.761719 -0.0351562 L 12.761719 -0.222656 L 11.609375 -0.988281 Z M 4.59375 0.0234375 L 5.746094 0.78125 L 5.746094 0.59375 L 4.59375 -0.164062 Z M 10.550781 -5.675781 L 11.703125 -4.921875 L 11.703125 -5.109375 L 10.539062 -5.875 C 10.539062 -5.804688 10.550781 -5.746094 10.550781 -5.675781 Z M 5.746094 0.210938 L 5.734375 0.210938 L 5.699219 0.140625 L 4.59375 -0.582031 L 4.59375 -0.394531 L 5.746094 0.359375 Z M 10.621094 -3.535156 L 11.761719 -2.78125 L 11.761719 -2.976562 L 10.609375 -3.734375 C 10.609375 -3.664062 10.621094 -3.605469 10.621094 -3.535156 Z M 10.644531 -2.6875 L 11.785156 -1.929688 L 11.785156 -2.128906 L 10.644531 -2.875 Z M 11.621094 -7.074219 L 12.773438 -6.304688 L 12.773438 -6.492188 L 11.621094 -7.261719 Z M 11.621094 -7.492188 L 12.773438 -6.726562 L 12.773438 -6.910156 L 11.621094 -7.679688 Z M 10.574219 -4.828125 L 11.726562 -4.070312 L 11.726562 -4.257812 L 10.574219 -5.015625 Z M 10.585938 -4.398438 L 11.738281 -3.640625 L 11.738281 -3.828125 L 10.585938 -4.585938 Z M 10.5625 -5.246094 L 11.714844 -4.492188 L 11.714844 -4.675781 L 10.550781 -5.445312 C 10.550781 -5.375 10.5625 -5.316406 10.5625 -5.246094 Z M 11.609375 -0.371094 L 12.761719 0.371094 L 12.761719 0.199219 L 11.609375 -0.558594 Z M 8.085938 0.894531 L 8.085938 0.871094 L 6.898438 0.09375 L 6.839844 0.210938 L 6.78125 0.210938 L 7.828125 0.894531 Z M 10.609375 -3.96875 L 11.75 -3.210938 L 11.75 -3.398438 L 10.597656 -4.164062 C 10.597656 -4.09375 10.609375 -4.039062 10.609375 -3.96875 Z M 12.773438 -5.957031 L 12.773438 -6.074219 L 11.621094 -6.839844 L 11.621094 -6.65625 L 12.683594 -5.957031 Z M 10.527344 -6.644531 L 10.527344 -6.539062 L 11.679688 -5.769531 L 11.679688 -5.957031 L 11.691406 -5.957031 L 10.644531 -6.644531 Z M 10.65625 -2.257812 L 11.796875 -1.511719 L 11.796875 -1.699219 L 10.65625 -2.441406 Z M 10.632812 -3.117188 L 11.773438 -2.363281 L 11.773438 -2.546875 L 10.621094 -3.304688 C 10.621094 -3.234375 10.632812 -3.175781 10.632812 -3.117188 Z M 3.605469 0.210938 L 4.640625 0.894531 L 4.933594 0.894531 L 3.898438 0.210938 Z M 8.679688 0.210938 L 9.726562 0.894531 L 10.015625 0.894531 L 8.96875 0.210938 Z M 1.699219 0.210938 L 2.746094 0.894531 L 3.023438 0.894531 L 1.988281 0.210938 Z M 2.339844 0.210938 L 3.375 0.894531 L 3.664062 0.894531 L 2.617188 0.210938 Z M 2.96875 0.210938 L 4.015625 0.894531 L 4.292969 0.894531 L 3.257812 0.210938 Z M 4.246094 0.210938 L 5.28125 0.894531 L 5.574219 0.894531 L 4.527344 0.210938 Z M 10.597656 0.210938 L 11.632812 0.894531 L 11.914062 0.894531 L 10.878906 0.210938 Z M 9.960938 0.210938 L 11.007812 0.894531 L 11.285156 0.894531 L 10.238281 0.210938 Z M 11.007812 -6.644531 L 12.042969 -5.957031 L 12.320312 -5.957031 L 11.285156 -6.644531 Z M 11.238281 0.210938 L 12.273438 0.894531 L 12.554688 0.894531 L 11.507812 0.210938 Z M 9.332031 0.210938 L 10.378906 0.894531 L 10.644531 0.894531 L 9.609375 0.210938 Z M 4.652344 -5.792969 L 5.609375 -5.164062 L 5.445312 -5.46875 L 4.492188 -6.097656 Z M 12.773438 -7.273438 L 11.621094 -8.039062 L 11.621094 -7.875 L 12.773438 -7.109375 Z M 4.292969 -6.457031 L 5.246094 -5.828125 L 5.097656 -6.121094 L 4.140625 -6.746094 Z M 3.945312 -7.097656 L 4.898438 -6.46875 L 4.746094 -6.757812 L 3.792969 -7.386719 Z M 6.621094 -3.269531 L 6.480469 -3.523438 L 5.539062 -4.140625 L 5.699219 -3.851562 L 6.609375 -3.246094 Z M 5.003906 -5.152344 L 5.945312 -4.527344 L 5.792969 -4.816406 L 4.839844 -5.445312 Z M 5.351562 -4.503906 L 6.28125 -3.886719 L 6.132812 -4.164062 L 5.1875 -4.792969 Z M 4.59375 -0.8125 L 5.539062 -0.1875 L 5.398438 -0.464844 L 4.59375 -1 Z M 3.675781 -2.675781 L 4.617188 -2.058594 L 4.480469 -2.328125 L 3.675781 -2.863281 Z M 8.039062 -2.304688 L 8.878906 -1.757812 L 8.878906 -1.953125 L 8.109375 -2.453125 Z M 7.132812 -0.394531 L 7.96875 0.152344 L 7.96875 -0.0351562 L 7.203125 -0.535156 Z M 7.886719 -1.988281 L 8.585938 -1.535156 L 8.867188 -1.535156 L 7.957031 -2.128906 Z M 7.285156 0.894531 L 7.46875 0.894531 L 6.433594 0.210938 L 6.246094 0.210938 Z M 7.285156 -0.710938 L 7.96875 -0.257812 L 7.96875 -0.453125 L 7.351562 -0.859375 Z M 8.191406 -2.628906 L 8.878906 -2.175781 C 8.878906 -2.246094 8.867188 -2.304688 8.867188 -2.363281 L 8.261719 -2.769531 Z M 4.128906 -1.535156 L 4.421875 -1.535156 L 3.675781 -2.023438 L 3.675781 -1.839844 Z M 3.675781 -3.082031 L 4.316406 -2.664062 L 4.175781 -2.957031 L 3.6875 -3.28125 C 3.6875 -3.210938 3.675781 -3.152344 3.675781 -3.082031 Z M 10.667969 -1.828125 L 11.121094 -1.535156 L 11.402344 -1.535156 L 10.667969 -2.023438 Z M 3.503906 -7.933594 L 3.59375 -7.75 L 4.550781 -7.121094 L 4.457031 -7.304688 Z M 6.0625 -3.199219 L 6.445312 -2.945312 L 6.515625 -3.082031 L 5.898438 -3.492188 Z M 7.433594 -1.035156 L 7.96875 -0.6875 L 7.96875 -0.871094 L 7.503906 -1.175781 Z M 8.355469 -2.945312 L 8.867188 -2.605469 L 8.867188 -2.792969 L 8.421875 -3.082031 Z M 7.585938 -1.347656 L 7.96875 -1.105469 L 7.96875 -1.292969 L 7.65625 -1.5 Z M 8.503906 -3.257812 L 8.855469 -3.023438 L 8.855469 -3.222656 L 8.574219 -3.410156 Z M 7.96875 -1.535156 L 8.226562 -1.535156 L 7.808594 -1.816406 L 7.738281 -1.675781 L 7.96875 -1.523438 Z M 3.6875 -3.503906 L 4.015625 -3.292969 L 3.886719 -3.558594 L 3.6875 -3.6875 Z M 4.59375 -1.234375 L 4.828125 -1.082031 L 4.828125 -1.269531 L 4.59375 -1.417969 Z M 11.609375 -1.210938 L 11.808594 -1.082031 L 11.796875 -1.269531 L 11.609375 -1.394531 Z M 8.65625 -3.582031 L 8.855469 -3.457031 L 8.855469 -3.640625 L 8.726562 -3.722656 Z M 8.050781 0.210938 L 8.320312 0.382812 L 8.386719 0.234375 L 8.34375 0.210938 Z M 3.675781 -1.535156 L 3.792969 -1.535156 L 3.675781 -1.605469 Z M 10.679688 -1.535156 L 10.773438 -1.535156 L 10.679688 -1.59375 Z M 10.679688 -1.535156 "/></g></g></g><g fill="#ffffff" fill-opacity="1"><g transform="translate(54.975497, 58.292231)"><g><path d="M 1.164062 -4.09375 C 1.164062 -1.675781 3.023438 0.128906 5.527344 0.128906 C 8.027344 0.128906 9.902344 -1.6875 9.902344 -4.09375 C 9.902344 -6.539062 8.0625 -8.320312 5.527344 -8.320312 C 3.070312 -8.320312 1.164062 -6.457031 1.164062 -4.09375 Z M 2.722656 -4.070312 C 2.722656 -5.746094 3.921875 -7.015625 5.539062 -7.015625 C 7.179688 -7.015625 8.355469 -5.746094 8.355469 -4.070312 C 8.355469 -2.410156 7.121094 -1.140625 5.539062 -1.140625 C 3.957031 -1.140625 2.722656 -2.429688 2.722656 -4.070312 Z M 4.398438 -4.5625 L 3.210938 -5.351562 L 3.140625 -5.199219 L 4.328125 -4.410156 Z M 4.269531 -4.234375 L 3.070312 -5.015625 C 3.058594 -4.96875 3.046875 -4.910156 3.023438 -4.851562 L 4.210938 -4.070312 Z M 10.402344 -0.605469 L 9.203125 -1.394531 C 9.167969 -1.347656 9.144531 -1.304688 9.109375 -1.269531 L 10.308594 -0.476562 Z M 9.925781 -0.0820312 L 8.738281 -0.871094 L 8.609375 -0.757812 L 9.796875 0.0234375 Z M 3.722656 -6.074219 L 4.910156 -5.292969 L 5.027344 -5.398438 L 3.839844 -6.191406 C 3.804688 -6.15625 3.757812 -6.121094 3.722656 -6.074219 Z M 9.679688 -2.152344 L 10.867188 -1.359375 L 10.9375 -1.511719 L 9.738281 -2.292969 Z M 3.492188 -5.804688 L 4.6875 -5.027344 L 4.78125 -5.140625 L 3.59375 -5.933594 Z M 3.304688 -5.515625 L 4.492188 -4.734375 L 4.574219 -4.863281 L 3.386719 -5.65625 C 3.351562 -5.609375 3.328125 -5.5625 3.304688 -5.515625 Z M 4.164062 -3.886719 L 2.988281 -4.652344 L 2.957031 -4.492188 L 4.128906 -3.710938 Z M 9.320312 -1.546875 L 10.519531 -0.757812 C 10.550781 -0.804688 10.574219 -0.847656 10.609375 -0.882812 L 9.414062 -1.675781 C 9.378906 -1.640625 9.355469 -1.59375 9.320312 -1.546875 Z M 8.878906 -1 L 10.0625 -0.222656 L 10.167969 -0.335938 L 8.980469 -1.117188 Z M 11.226562 -2.570312 L 10.050781 -3.351562 L 10.015625 -3.175781 L 11.191406 -2.410156 Z M 5.316406 -5.632812 L 4.140625 -6.410156 L 4.003906 -6.316406 L 5.1875 -5.527344 Z M 6.050781 -5.992188 L 4.921875 -6.738281 L 4.710938 -6.679688 L 5.863281 -5.921875 Z M 2.933594 -4.082031 L 4.082031 -3.328125 C 4.09375 -3.386719 4.09375 -3.445312 4.09375 -3.503906 L 2.933594 -4.269531 Z M 9.632812 0.140625 L 8.457031 -0.628906 L 8.320312 -0.535156 L 9.503906 0.246094 Z M 10.785156 -1.1875 L 9.585938 -1.976562 L 9.515625 -1.839844 L 10.703125 -1.058594 Z M 9.332031 0.359375 L 8.144531 -0.417969 C 8.097656 -0.382812 8.050781 -0.347656 8.003906 -0.324219 L 9.179688 0.441406 Z M 11.25 -3.398438 L 10.109375 -4.152344 L 10.109375 -4.09375 C 10.109375 -4.046875 10.097656 -4.003906 10.097656 -3.96875 L 11.261719 -3.199219 C 11.261719 -3.269531 11.261719 -3.328125 11.25 -3.398438 Z M 11.15625 -2.199219 L 9.972656 -2.976562 L 9.9375 -2.828125 L 11.109375 -2.046875 Z M 5.65625 -5.828125 L 4.492188 -6.597656 C 4.433594 -6.574219 4.375 -6.550781 4.328125 -6.515625 L 5.503906 -5.746094 Z M 9.820312 -2.476562 L 11.007812 -1.699219 C 11.019531 -1.746094 11.042969 -1.792969 11.054688 -1.851562 L 9.867188 -2.628906 C 9.855469 -2.570312 9.832031 -2.523438 9.820312 -2.476562 Z M 11.25 -2.96875 L 10.085938 -3.734375 C 10.085938 -3.675781 10.074219 -3.617188 10.074219 -3.558594 L 11.25 -2.792969 Z M 11.203125 -3.839844 L 10.085938 -4.585938 C 10.085938 -4.515625 10.097656 -4.445312 10.097656 -4.386719 L 11.238281 -3.628906 Z M 2.957031 -3.652344 L 4.082031 -2.910156 L 4.082031 -3.09375 L 2.945312 -3.851562 C 2.945312 -3.78125 2.945312 -3.710938 2.957031 -3.652344 Z M 8.597656 0.722656 L 7.445312 -0.0351562 L 7.273438 0.0234375 L 8.410156 0.78125 C 8.480469 0.769531 8.539062 0.746094 8.597656 0.722656 Z M 8.980469 0.546875 L 7.820312 -0.210938 L 7.65625 -0.140625 L 8.820312 0.628906 Z M 7.703125 0.953125 L 6.585938 0.222656 C 6.515625 0.246094 6.433594 0.257812 6.363281 0.269531 L 7.46875 0.988281 Z M 8.179688 0.859375 L 7.039062 0.105469 C 6.96875 0.117188 6.910156 0.140625 6.839844 0.164062 L 7.980469 0.90625 C 8.050781 0.882812 8.121094 0.871094 8.179688 0.859375 Z M 3.070312 -3.152344 L 4.140625 -2.441406 L 4.105469 -2.652344 L 3.011719 -3.386719 C 3.023438 -3.304688 3.046875 -3.234375 3.070312 -3.152344 Z M 6.527344 -6.085938 L 5.445312 -6.804688 C 5.363281 -6.804688 5.269531 -6.792969 5.1875 -6.78125 L 6.304688 -6.050781 C 6.375 -6.074219 6.457031 -6.074219 6.527344 -6.085938 Z M 11.109375 -4.328125 L 10.003906 -5.050781 L 10.050781 -4.839844 L 11.167969 -4.105469 C 11.144531 -4.175781 11.121094 -4.246094 11.109375 -4.328125 Z M 10.925781 -4.863281 L 9.878906 -5.5625 L 9.949219 -5.328125 L 11.019531 -4.617188 C 10.996094 -4.699219 10.960938 -4.78125 10.925781 -4.863281 Z M 6.921875 1.023438 C 6.992188 1.023438 7.074219 1.023438 7.144531 1.011719 L 6.074219 0.300781 L 5.816406 0.324219 L 6.875 1.023438 Z M 6.933594 -6.121094 C 7.003906 -6.121094 7.0625 -6.121094 7.132812 -6.109375 L 6.203125 -6.726562 C 6.074219 -6.757812 5.945312 -6.78125 5.816406 -6.792969 L 6.839844 -6.121094 Z M 6.492188 1 L 5.480469 0.335938 C 5.375 0.335938 5.28125 0.324219 5.175781 0.324219 L 6.15625 0.964844 Z M 3.351562 -2.546875 L 4.304688 -1.917969 C 4.269531 -2 4.234375 -2.082031 4.210938 -2.164062 L 3.199219 -2.839844 C 3.246094 -2.746094 3.292969 -2.640625 3.351562 -2.546875 Z M 10.5625 -5.515625 L 9.632812 -6.132812 C 9.679688 -6.050781 9.714844 -5.957031 9.761719 -5.863281 L 10.75 -5.210938 C 10.691406 -5.316406 10.632812 -5.421875 10.5625 -5.515625 Z M 5.621094 0.847656 L 4.757812 0.277344 C 4.617188 0.257812 4.492188 0.234375 4.363281 0.199219 L 5.003906 0.628906 C 5.199219 0.710938 5.398438 0.792969 5.621094 0.847656 Z M 9.46875 -6.621094 L 9.261719 -6.746094 C 9.332031 -6.65625 9.402344 -6.550781 9.457031 -6.445312 L 10.261719 -5.921875 C 10.027344 -6.191406 9.761719 -6.421875 9.46875 -6.621094 Z M 4.492188 -1.558594 L 4.46875 -1.582031 L 3.757812 -2.058594 C 3.96875 -1.851562 4.210938 -1.675781 4.492188 -1.558594 Z M 4.492188 -1.558594 "/></g></g></g><g fill="#ffffff" fill-opacity="1"><g transform="translate(16.650872, 74.358983)"><g><path d="M 8.050781 -1.78125 C 8.050781 -1.78125 7.203125 -1.222656 5.550781 -1.222656 C 4.070312 -1.222656 2.722656 -2.429688 2.722656 -4.070312 C 2.722656 -5.746094 3.734375 -6.957031 5.410156 -6.957031 C 6.492188 -6.957031 7.421875 -6.363281 7.46875 -5.410156 L 8.773438 -5.410156 L 8.761719 -8.179688 L 7.457031 -8.179688 L 7.550781 -7.328125 C 7.503906 -7.492188 7.167969 -8.320312 5.164062 -8.320312 C 2.988281 -8.320312 1.164062 -6.457031 1.164062 -4.09375 C 1.164062 -1.570312 3.117188 0.140625 5.757812 0.140625 C 7.457031 0.140625 8.492188 -0.546875 8.492188 -0.546875 Z M 4.628906 -5.015625 L 3.433594 -5.804688 C 3.410156 -5.757812 3.375 -5.710938 3.339844 -5.667969 L 4.539062 -4.875 Z M 7.992188 -0.09375 L 9.15625 0.675781 C 9.226562 0.652344 9.285156 0.617188 9.34375 0.59375 L 8.179688 -0.164062 Z M 5.121094 -5.527344 L 3.945312 -6.304688 L 3.804688 -6.203125 L 4.992188 -5.421875 Z M 7.585938 0.0585938 L 8.726562 0.804688 L 8.933594 0.746094 L 7.785156 -0.0117188 Z M 4.851562 -5.28125 L 3.664062 -6.074219 C 3.628906 -6.027344 3.582031 -5.992188 3.546875 -5.957031 L 4.746094 -5.164062 Z M 4.445312 -4.722656 L 3.246094 -5.503906 L 3.1875 -5.363281 L 4.375 -4.574219 Z M 4.1875 -4.046875 L 3 -4.828125 L 2.976562 -4.652344 L 4.152344 -3.886719 Z M 4.117188 -3.675781 L 2.957031 -4.445312 L 2.933594 -4.269531 L 4.09375 -3.503906 Z M 9.714844 0.429688 L 8.539062 -0.335938 L 8.375 -0.257812 L 9.550781 0.511719 Z M 3.011719 -3.375 L 4.117188 -2.640625 C 4.105469 -2.710938 4.09375 -2.792969 4.09375 -2.863281 L 2.96875 -3.59375 Z M 5.445312 -5.734375 L 4.269531 -6.503906 L 4.117188 -6.421875 L 5.292969 -5.644531 C 5.339844 -5.675781 5.386719 -5.710938 5.445312 -5.734375 Z M 6.65625 0.277344 L 7.75 1 L 7.992188 0.964844 L 6.886719 0.234375 Z M 8.980469 -5.304688 L 10.132812 -4.550781 L 10.132812 -4.734375 L 8.96875 -5.503906 Z M 8.96875 -5.734375 L 10.132812 -4.96875 L 10.132812 -5.152344 L 8.96875 -5.921875 Z M 10.132812 -5.574219 L 8.96875 -6.339844 L 8.96875 -6.15625 L 10.132812 -5.386719 Z M 4.082031 -3.09375 L 4.082031 -3.28125 L 2.933594 -4.039062 C 2.933594 -3.980469 2.933594 -3.910156 2.945312 -3.839844 Z M 4.292969 -4.398438 L 3.105469 -5.175781 C 3.09375 -5.128906 3.082031 -5.074219 3.058594 -5.027344 L 4.246094 -4.246094 Z M 8.96875 -6.574219 L 10.121094 -5.804688 L 10.121094 -5.992188 L 8.96875 -6.757812 Z M 8.96875 -6.992188 L 10.121094 -6.222656 L 10.121094 -6.410156 L 8.96875 -7.179688 Z M 5.816406 -5.898438 L 4.675781 -6.65625 L 4.492188 -6.597656 L 5.644531 -5.828125 Z M 8.96875 -7.410156 L 10.121094 -6.65625 L 10.121094 -6.828125 L 8.96875 -7.597656 Z M 10.121094 -7.214844 L 8.96875 -7.980469 L 8.96875 -7.796875 L 10.121094 -7.039062 Z M 6.109375 0.335938 L 7.167969 1.035156 C 7.261719 1.035156 7.351562 1.023438 7.445312 1.023438 L 6.363281 0.3125 Z M 6.28125 -6.015625 L 5.1875 -6.738281 C 5.109375 -6.738281 5.027344 -6.726562 4.945312 -6.714844 L 6.074219 -5.96875 C 6.144531 -5.992188 6.210938 -6.003906 6.28125 -6.015625 Z M 7.144531 0.175781 L 8.273438 0.917969 C 8.34375 0.894531 8.410156 0.882812 8.480469 0.871094 L 7.339844 0.128906 Z M 3.234375 -2.804688 L 4.234375 -2.152344 L 4.164062 -2.386719 L 3.117188 -3.082031 C 3.152344 -2.988281 3.1875 -2.898438 3.234375 -2.804688 Z M 8.550781 -0.976562 L 9.597656 -0.289062 L 9.515625 -0.535156 L 8.46875 -1.222656 Z M 8.75 -0.464844 C 8.75 -0.464844 8.738281 -0.453125 8.726562 -0.453125 L 9.796875 0.257812 L 9.703125 0 L 8.667969 -0.675781 Z M 7.875 -5.199219 L 8.921875 -4.515625 L 9.203125 -4.515625 L 8.15625 -5.199219 Z M 8.515625 -5.199219 L 9.550781 -4.515625 L 9.832031 -4.515625 L 8.796875 -5.199219 Z M 6.804688 -6.0625 L 6.851562 -6.0625 L 5.898438 -6.691406 C 5.78125 -6.726562 5.65625 -6.738281 5.527344 -6.746094 L 6.585938 -6.050781 C 6.65625 -6.0625 6.726562 -6.0625 6.804688 -6.0625 Z M 5.480469 0.335938 L 6.480469 0.988281 C 6.585938 1 6.703125 1.023438 6.804688 1.023438 L 5.78125 0.347656 L 5.757812 0.347656 C 5.667969 0.347656 5.574219 0.347656 5.480469 0.335938 Z M 4.710938 0.246094 L 5.539062 0.792969 C 5.6875 0.835938 5.851562 0.882812 6.015625 0.917969 L 5.085938 0.300781 C 4.957031 0.289062 4.828125 0.269531 4.710938 0.246094 Z M 4.457031 -1.675781 C 4.421875 -1.722656 4.386719 -1.78125 4.363281 -1.839844 L 3.511719 -2.398438 C 3.769531 -2.082031 4.082031 -1.839844 4.457031 -1.675781 Z M 4.457031 -1.675781 "/></g></g></g><g fill="#ffffff" fill-opacity="1"><g transform="translate(26.982362, 74.358983)"><g><path d="M 1.164062 -4.09375 C 1.164062 -1.675781 3.023438 0.128906 5.527344 0.128906 C 8.027344 0.128906 9.902344 -1.6875 9.902344 -4.09375 C 9.902344 -6.539062 8.0625 -8.320312 5.527344 -8.320312 C 3.070312 -8.320312 1.164062 -6.457031 1.164062 -4.09375 Z M 2.722656 -4.070312 C 2.722656 -5.746094 3.921875 -7.015625 5.539062 -7.015625 C 7.179688 -7.015625 8.355469 -5.746094 8.355469 -4.070312 C 8.355469 -2.410156 7.121094 -1.140625 5.539062 -1.140625 C 3.957031 -1.140625 2.722656 -2.429688 2.722656 -4.070312 Z M 4.398438 -4.5625 L 3.210938 -5.351562 L 3.140625 -5.199219 L 4.328125 -4.410156 Z M 4.269531 -4.234375 L 3.070312 -5.015625 C 3.058594 -4.96875 3.046875 -4.910156 3.023438 -4.851562 L 4.210938 -4.070312 Z M 10.402344 -0.605469 L 9.203125 -1.394531 C 9.167969 -1.347656 9.144531 -1.304688 9.109375 -1.269531 L 10.308594 -0.476562 Z M 9.925781 -0.0820312 L 8.738281 -0.871094 L 8.609375 -0.757812 L 9.796875 0.0234375 Z M 3.722656 -6.074219 L 4.910156 -5.292969 L 5.027344 -5.398438 L 3.839844 -6.191406 C 3.804688 -6.15625 3.757812 -6.121094 3.722656 -6.074219 Z M 9.679688 -2.152344 L 10.867188 -1.359375 L 10.9375 -1.511719 L 9.738281 -2.292969 Z M 3.492188 -5.804688 L 4.6875 -5.027344 L 4.78125 -5.140625 L 3.59375 -5.933594 Z M 3.304688 -5.515625 L 4.492188 -4.734375 L 4.574219 -4.863281 L 3.386719 -5.65625 C 3.351562 -5.609375 3.328125 -5.5625 3.304688 -5.515625 Z M 4.164062 -3.886719 L 2.988281 -4.652344 L 2.957031 -4.492188 L 4.128906 -3.710938 Z M 9.320312 -1.546875 L 10.519531 -0.757812 C 10.550781 -0.804688 10.574219 -0.847656 10.609375 -0.882812 L 9.414062 -1.675781 C 9.378906 -1.640625 9.355469 -1.59375 9.320312 -1.546875 Z M 8.878906 -1 L 10.0625 -0.222656 L 10.167969 -0.335938 L 8.980469 -1.117188 Z M 11.226562 -2.570312 L 10.050781 -3.351562 L 10.015625 -3.175781 L 11.191406 -2.410156 Z M 5.316406 -5.632812 L 4.140625 -6.410156 L 4.003906 -6.316406 L 5.1875 -5.527344 Z M 6.050781 -5.992188 L 4.921875 -6.738281 L 4.710938 -6.679688 L 5.863281 -5.921875 Z M 2.933594 -4.082031 L 4.082031 -3.328125 C 4.09375 -3.386719 4.09375 -3.445312 4.09375 -3.503906 L 2.933594 -4.269531 Z M 9.632812 0.140625 L 8.457031 -0.628906 L 8.320312 -0.535156 L 9.503906 0.246094 Z M 10.785156 -1.1875 L 9.585938 -1.976562 L 9.515625 -1.839844 L 10.703125 -1.058594 Z M 9.332031 0.359375 L 8.144531 -0.417969 C 8.097656 -0.382812 8.050781 -0.347656 8.003906 -0.324219 L 9.179688 0.441406 Z M 11.25 -3.398438 L 10.109375 -4.152344 L 10.109375 -4.09375 C 10.109375 -4.046875 10.097656 -4.003906 10.097656 -3.96875 L 11.261719 -3.199219 C 11.261719 -3.269531 11.261719 -3.328125 11.25 -3.398438 Z M 11.15625 -2.199219 L 9.972656 -2.976562 L 9.9375 -2.828125 L 11.109375 -2.046875 Z M 5.65625 -5.828125 L 4.492188 -6.597656 C 4.433594 -6.574219 4.375 -6.550781 4.328125 -6.515625 L 5.503906 -5.746094 Z M 9.820312 -2.476562 L 11.007812 -1.699219 C 11.019531 -1.746094 11.042969 -1.792969 11.054688 -1.851562 L 9.867188 -2.628906 C 9.855469 -2.570312 9.832031 -2.523438 9.820312 -2.476562 Z M 11.25 -2.96875 L 10.085938 -3.734375 C 10.085938 -3.675781 10.074219 -3.617188 10.074219 -3.558594 L 11.25 -2.792969 Z M 11.203125 -3.839844 L 10.085938 -4.585938 C 10.085938 -4.515625 10.097656 -4.445312 10.097656 -4.386719 L 11.238281 -3.628906 Z M 2.957031 -3.652344 L 4.082031 -2.910156 L 4.082031 -3.09375 L 2.945312 -3.851562 C 2.945312 -3.78125 2.945312 -3.710938 2.957031 -3.652344 Z M 8.597656 0.722656 L 7.445312 -0.0351562 L 7.273438 0.0234375 L 8.410156 0.78125 C 8.480469 0.769531 8.539062 0.746094 8.597656 0.722656 Z M 8.980469 0.546875 L 7.820312 -0.210938 L 7.65625 -0.140625 L 8.820312 0.628906 Z M 7.703125 0.953125 L 6.585938 0.222656 C 6.515625 0.246094 6.433594 0.257812 6.363281 0.269531 L 7.46875 0.988281 Z M 8.179688 0.859375 L 7.039062 0.105469 C 6.96875 0.117188 6.910156 0.140625 6.839844 0.164062 L 7.980469 0.90625 C 8.050781 0.882812 8.121094 0.871094 8.179688 0.859375 Z M 3.070312 -3.152344 L 4.140625 -2.441406 L 4.105469 -2.652344 L 3.011719 -3.386719 C 3.023438 -3.304688 3.046875 -3.234375 3.070312 -3.152344 Z M 6.527344 -6.085938 L 5.445312 -6.804688 C 5.363281 -6.804688 5.269531 -6.792969 5.1875 -6.78125 L 6.304688 -6.050781 C 6.375 -6.074219 6.457031 -6.074219 6.527344 -6.085938 Z M 11.109375 -4.328125 L 10.003906 -5.050781 L 10.050781 -4.839844 L 11.167969 -4.105469 C 11.144531 -4.175781 11.121094 -4.246094 11.109375 -4.328125 Z M 10.925781 -4.863281 L 9.878906 -5.5625 L 9.949219 -5.328125 L 11.019531 -4.617188 C 10.996094 -4.699219 10.960938 -4.78125 10.925781 -4.863281 Z M 6.921875 1.023438 C 6.992188 1.023438 7.074219 1.023438 7.144531 1.011719 L 6.074219 0.300781 L 5.816406 0.324219 L 6.875 1.023438 Z M 6.933594 -6.121094 C 7.003906 -6.121094 7.0625 -6.121094 7.132812 -6.109375 L 6.203125 -6.726562 C 6.074219 -6.757812 5.945312 -6.78125 5.816406 -6.792969 L 6.839844 -6.121094 Z M 6.492188 1 L 5.480469 0.335938 C 5.375 0.335938 5.28125 0.324219 5.175781 0.324219 L 6.15625 0.964844 Z M 3.351562 -2.546875 L 4.304688 -1.917969 C 4.269531 -2 4.234375 -2.082031 4.210938 -2.164062 L 3.199219 -2.839844 C 3.246094 -2.746094 3.292969 -2.640625 3.351562 -2.546875 Z M 10.5625 -5.515625 L 9.632812 -6.132812 C 9.679688 -6.050781 9.714844 -5.957031 9.761719 -5.863281 L 10.75 -5.210938 C 10.691406 -5.316406 10.632812 -5.421875 10.5625 -5.515625 Z M 5.621094 0.847656 L 4.757812 0.277344 C 4.617188 0.257812 4.492188 0.234375 4.363281 0.199219 L 5.003906 0.628906 C 5.199219 0.710938 5.398438 0.792969 5.621094 0.847656 Z M 9.46875 -6.621094 L 9.261719 -6.746094 C 9.332031 -6.65625 9.402344 -6.550781 9.457031 -6.445312 L 10.261719 -5.921875 C 10.027344 -6.191406 9.761719 -6.421875 9.46875 -6.621094 Z M 4.492188 -1.558594 L 4.46875 -1.582031 L 3.757812 -2.058594 C 3.96875 -1.851562 4.210938 -1.675781 4.492188 -1.558594 Z M 4.492188 -1.558594 "/></g></g></g><g fill="#ffffff" fill-opacity="1"><g transform="translate(38.046827, 74.358983)"><g><path d="M 1.070312 -6.851562 L 1.964844 -6.851562 L 1.964844 -1.328125 L 1.070312 -1.328125 L 1.070312 0 L 4.304688 0 L 4.304688 -1.328125 L 3.410156 -1.328125 L 3.410156 -6.851562 L 4.304688 -6.851562 L 4.304688 -8.179688 L 1.070312 -8.179688 Z M 3.617188 -5.128906 L 4.769531 -4.375 L 4.769531 -4.5625 L 3.617188 -5.316406 Z M 3.617188 -3.875 L 4.769531 -3.117188 L 4.769531 -3.304688 L 3.617188 -4.058594 Z M 3.617188 -3.035156 L 4.769531 -2.28125 L 4.769531 -2.464844 L 3.617188 -3.222656 Z M 3.617188 -4.292969 L 4.769531 -3.535156 L 4.769531 -3.722656 L 3.617188 -4.480469 Z M 3.617188 -4.710938 L 4.769531 -3.957031 L 4.769531 -4.140625 L 3.617188 -4.898438 Z M 4.515625 -7.46875 L 5.667969 -6.714844 L 5.667969 -6.898438 L 4.515625 -7.65625 Z M 3.617188 -5.96875 L 4.769531 -5.210938 L 4.769531 -5.398438 L 3.617188 -6.15625 Z M 3.617188 -6.386719 L 4.769531 -5.632812 L 4.769531 -5.816406 L 3.617188 -6.574219 Z M 4.515625 0.0585938 L 5.667969 0.824219 L 5.667969 0.640625 L 4.515625 -0.117188 Z M 4.515625 -0.347656 L 5.667969 0.40625 L 5.667969 0.222656 L 4.515625 -0.535156 Z M 4.515625 -7.050781 L 5.667969 -6.292969 L 5.667969 -6.480469 L 4.515625 -7.238281 Z M 3.617188 -2.199219 L 4.769531 -1.441406 L 4.769531 -1.628906 L 3.617188 -2.386719 Z M 3.617188 -5.550781 L 4.769531 -4.792969 L 4.769531 -4.980469 L 3.617188 -5.734375 Z M 3.617188 -2.617188 L 4.769531 -1.863281 L 4.769531 -2.046875 L 3.617188 -2.804688 Z M 3.617188 -3.457031 L 4.769531 -2.699219 L 4.769531 -2.886719 L 3.617188 -3.640625 Z M 4.515625 -0.769531 L 5.667969 -0.0117188 L 5.667969 -0.199219 L 4.515625 -0.953125 Z M 5.667969 -5.957031 L 5.667969 -6.0625 L 4.515625 -6.816406 L 4.515625 -6.644531 L 4.503906 -6.644531 L 5.539062 -5.957031 Z M 5.667969 -7.273438 L 4.515625 -8.039062 L 4.515625 -7.851562 L 5.667969 -7.097656 Z M 1.546875 0.210938 L 2.59375 0.894531 L 2.875 0.894531 L 1.839844 0.210938 Z M 2.828125 0.210938 L 3.863281 0.894531 L 4.152344 0.894531 L 3.105469 0.210938 Z M 3.457031 0.210938 L 4.503906 0.894531 L 4.78125 0.894531 L 3.746094 0.210938 Z M 3.863281 -6.644531 L 4.910156 -5.957031 L 5.1875 -5.957031 L 4.152344 -6.644531 Z M 4.09375 0.210938 L 5.128906 0.894531 L 5.421875 0.894531 L 4.375 0.210938 Z M 2.1875 0.210938 L 3.234375 0.894531 L 3.511719 0.894531 L 2.464844 0.210938 Z M 3.992188 -1.535156 L 4.269531 -1.535156 L 3.617188 -1.964844 L 3.617188 -1.78125 Z M 4.515625 -1.1875 L 4.769531 -1.023438 L 4.769531 -1.199219 L 4.515625 -1.371094 Z M 3.617188 -1.535156 L 3.628906 -1.535156 L 3.617188 -1.546875 Z M 3.617188 -1.535156 "/></g></g></g><g fill="#ffffff" fill-opacity="1"><g transform="translate(43.445262, 74.358983)"><g><path d="M 6.585938 -6.851562 L 7.480469 -6.851562 L 7.480469 -2.722656 L 2.816406 -8.179688 L 1.070312 -8.179688 L 1.070312 -6.851562 L 1.964844 -6.851562 L 1.964844 -1.328125 L 1.070312 -1.328125 L 1.070312 0 L 4.304688 0 L 4.304688 -1.328125 L 3.410156 -1.328125 L 3.410156 -5.363281 L 7.839844 0 L 8.921875 0 L 8.921875 -6.851562 L 9.820312 -6.851562 L 9.820312 -8.179688 L 6.585938 -8.179688 Z M 9.132812 -3.851562 L 10.285156 -3.09375 L 10.285156 -3.28125 L 9.132812 -4.046875 Z M 9.132812 -0.917969 L 10.285156 -0.164062 L 10.285156 -0.347656 L 9.132812 -1.117188 Z M 3.617188 -2.464844 L 4.769531 -1.710938 L 4.769531 -1.894531 L 3.617188 -2.652344 Z M 3.617188 -2.886719 L 4.769531 -2.128906 L 4.769531 -2.316406 L 3.617188 -3.070312 Z M 9.132812 -1.757812 L 10.285156 -1 L 10.285156 -1.1875 L 9.132812 -1.953125 Z M 9.132812 -2.175781 L 10.285156 -1.417969 L 10.285156 -1.605469 L 9.132812 -2.375 Z M 3.617188 -3.304688 L 4.769531 -2.546875 L 4.769531 -2.734375 L 3.617188 -3.492188 Z M 3.617188 -3.722656 L 4.769531 -2.96875 L 4.769531 -3.152344 L 3.617188 -3.910156 Z M 9.132812 -4.28125 L 10.285156 -3.511719 L 10.285156 -3.699219 L 9.132812 -4.46875 Z M 10.027344 -7.839844 L 11.179688 -7.074219 L 11.179688 -7.261719 L 10.027344 -8.027344 Z M 4.515625 -0.199219 L 5.667969 0.558594 L 5.667969 0.371094 L 4.515625 -0.382812 Z M 4.515625 -0.617188 L 5.667969 0.140625 L 5.667969 -0.046875 L 4.515625 -0.804688 Z M 9.132812 -5.957031 L 10.285156 -5.1875 L 10.285156 -5.375 L 9.132812 -6.144531 Z M 9.132812 -3.433594 L 10.285156 -2.675781 L 10.285156 -2.863281 L 9.132812 -3.617188 Z M 9.132812 -2.605469 L 10.285156 -1.839844 L 10.285156 -2.023438 L 9.132812 -2.792969 Z M 9.132812 -1.347656 L 10.285156 -0.582031 L 10.285156 -0.769531 L 9.132812 -1.535156 Z M 9.132812 -3.023438 L 10.285156 -2.257812 L 10.285156 -2.441406 L 9.132812 -3.210938 Z M 9.132812 -4.699219 L 10.285156 -3.933594 L 10.285156 -4.117188 L 9.132812 -4.886719 Z M 9.132812 -5.121094 L 10.285156 -4.351562 L 10.285156 -4.539062 L 9.132812 -5.304688 Z M 9.132812 -5.539062 L 10.285156 -4.769531 L 10.285156 -4.957031 L 9.132812 -5.722656 Z M 9.132812 -6.375 L 10.285156 -5.609375 L 10.285156 -5.792969 L 9.132812 -6.5625 Z M 10.027344 -7.039062 L 11.179688 -6.269531 L 11.179688 -6.457031 L 10.027344 -7.226562 Z M 4.515625 -1.535156 L 4.515625 -1.453125 L 4.769531 -1.292969 L 4.769531 -1.476562 L 3.617188 -2.234375 L 3.617188 -2.046875 L 4.398438 -1.535156 Z M 10.027344 -7.457031 L 11.179688 -6.703125 L 11.179688 -6.875 L 10.027344 -7.644531 Z M 9.132812 -0.09375 L 10.285156 0.664062 L 10.285156 0.476562 L 9.132812 -0.269531 Z M 9.132812 -0.511719 L 10.285156 0.246094 L 10.285156 0.0585938 L 9.132812 -0.6875 Z M 5.667969 0.894531 L 5.667969 0.792969 L 4.515625 0.0234375 L 4.515625 0.210938 L 4.503906 0.210938 L 5.539062 0.894531 Z M 11.179688 -5.957031 L 11.179688 -6.039062 L 10.027344 -6.804688 L 10.027344 -6.644531 L 9.992188 -6.644531 L 11.03125 -5.957031 Z M 1.953125 0.210938 L 3 0.894531 L 3.292969 0.894531 L 2.246094 0.210938 Z M 2.59375 0.210938 L 3.640625 0.894531 L 3.921875 0.894531 L 2.886719 0.210938 Z M 3.234375 0.210938 L 4.269531 0.894531 L 4.5625 0.894531 L 3.511719 0.210938 Z M 3.863281 0.210938 L 4.910156 0.894531 L 5.1875 0.894531 L 4.152344 0.210938 Z M 8.945312 0.210938 L 9.992188 0.894531 L 10.273438 0.894531 L 9.132812 0.140625 L 9.132812 0.210938 Z M 9.355469 -6.644531 L 10.402344 -5.957031 L 10.679688 -5.957031 L 9.632812 -6.644531 Z M 8.320312 0.210938 L 9.355469 0.894531 L 9.632812 0.894531 L 8.597656 0.210938 Z M 4.769531 -3.398438 L 4.445312 -3.78125 L 3.617188 -4.328125 L 3.617188 -4.140625 L 4.769531 -3.386719 Z M 2.421875 0.894531 L 2.652344 0.894531 L 1.617188 0.210938 L 1.382812 0.210938 Z M 5.667969 -0.359375 L 4.769531 -0.953125 L 4.769531 -1.058594 L 4.515625 -1.222656 L 4.515625 -1.035156 L 5.667969 -0.277344 Z M 4.585938 -6.433594 L 5.210938 -6.015625 L 4.851562 -6.445312 L 4.210938 -6.863281 Z M 5.421875 -5.46875 L 6.027344 -5.0625 L 5.65625 -5.503906 L 5.039062 -5.910156 Z M 6.234375 -4.503906 L 6.839844 -4.105469 L 6.480469 -4.539062 L 5.875 -4.933594 Z M 3.46875 -7.75 L 3.769531 -7.386719 L 4.410156 -6.96875 L 4.105469 -7.328125 Z M 7.0625 -3.546875 L 7.273438 -3.410156 L 7.273438 -3.59375 L 6.691406 -3.980469 Z M 3.757812 -1.535156 L 4.046875 -1.535156 L 3.617188 -1.816406 L 3.617188 -1.628906 Z M 3.617188 -4.5625 L 4.039062 -4.28125 L 3.6875 -4.699219 L 3.617188 -4.746094 Z M 3.617188 -4.5625 "/></g></g></g><g fill="#ffffff" fill-opacity="1"><g transform="translate(54.370114, 74.358983)"><g><path d="M 1.164062 -2.558594 L 1.175781 0 L 2.476562 0 L 2.375 -0.675781 C 2.375 -0.675781 2.769531 0.140625 4.363281 0.140625 C 5.78125 0.140625 6.886719 -0.757812 6.886719 -2.210938 C 6.886719 -3.28125 6.363281 -4.003906 4.539062 -4.710938 C 3.386719 -5.175781 2.945312 -5.527344 2.945312 -6.097656 C 2.945312 -6.597656 3.269531 -7.027344 4.082031 -7.027344 C 4.734375 -7.027344 5.28125 -6.839844 5.339844 -6.15625 L 5.339844 -5.769531 L 6.644531 -5.769531 L 6.632812 -8.179688 L 5.328125 -8.179688 L 5.433594 -7.65625 C 5.398438 -7.714844 5.0625 -8.320312 4.003906 -8.320312 C 2.398438 -8.320312 1.488281 -7.226562 1.488281 -6.0625 C 1.488281 -5.039062 2.035156 -4.234375 3.628906 -3.628906 C 5.109375 -3.082031 5.410156 -2.757812 5.410156 -2.210938 C 5.410156 -1.6875 4.992188 -1.210938 4.058594 -1.210938 C 3.304688 -1.210938 2.464844 -1.476562 2.464844 -2.410156 L 2.464844 -2.558594 Z M 6.550781 -0.570312 L 7.738281 0.210938 C 7.773438 0.164062 7.808594 0.128906 7.828125 0.0820312 L 6.644531 -0.699219 Z M 8.261719 -1.117188 L 8.261719 -1.304688 L 7.109375 -2.070312 C 7.109375 -2 7.097656 -1.941406 7.085938 -1.886719 Z M 8.015625 -0.210938 L 6.816406 -1 C 6.792969 -0.953125 6.78125 -0.90625 6.746094 -0.859375 L 7.945312 -0.0703125 Z M 6.851562 -7.074219 L 8.003906 -6.304688 L 8.003906 -6.503906 L 6.851562 -7.261719 Z M 7.597656 0.347656 L 6.410156 -0.429688 C 6.375 -0.394531 6.339844 -0.347656 6.292969 -0.3125 L 7.480469 0.453125 C 7.515625 0.417969 7.5625 0.394531 7.597656 0.347656 Z M 8.15625 -0.535156 L 6.957031 -1.328125 C 6.945312 -1.269531 6.933594 -1.222656 6.910156 -1.175781 L 8.097656 -0.382812 C 8.109375 -0.441406 8.132812 -0.488281 8.15625 -0.535156 Z M 4.375 -5.539062 L 3.199219 -6.316406 C 3.175781 -6.269531 3.164062 -6.210938 3.164062 -6.15625 L 4.339844 -5.375 Z M 4.574219 -5.828125 L 3.386719 -6.609375 L 3.28125 -6.492188 L 4.46875 -5.710938 Z M 8.015625 -5.65625 L 6.851562 -6.421875 L 6.851562 -6.234375 L 8.015625 -5.46875 Z M 6.851562 -5.816406 L 8.015625 -5.050781 L 8.015625 -5.234375 L 6.851562 -6.003906 Z M 7.316406 0.582031 L 6.144531 -0.1875 L 6.003906 -0.09375 L 7.179688 0.675781 C 7.226562 0.640625 7.273438 0.605469 7.316406 0.582031 Z M 4.898438 -6.039062 L 3.769531 -6.78125 C 3.699219 -6.757812 3.628906 -6.746094 3.570312 -6.726562 L 4.734375 -5.957031 C 4.78125 -5.992188 4.839844 -6.015625 4.898438 -6.039062 Z M 6.851562 -7.492188 L 8.003906 -6.738281 L 8.003906 -6.921875 L 6.851562 -7.679688 Z M 6.851562 -6.65625 L 8.003906 -5.886719 L 8.003906 -6.074219 L 6.851562 -6.839844 Z M 8.226562 -0.90625 L 7.0625 -1.675781 L 7.027344 -1.511719 L 8.203125 -0.746094 C 8.214844 -0.792969 8.226562 -0.847656 8.226562 -0.90625 Z M 6.574219 0.929688 L 5.433594 0.175781 C 5.363281 0.199219 5.292969 0.210938 5.234375 0.234375 L 6.363281 0.976562 Z M 6.074219 1.011719 L 4.980469 0.289062 L 4.734375 0.324219 L 5.816406 1.035156 C 5.898438 1.035156 5.992188 1.023438 6.074219 1.011719 Z M 6.980469 0.78125 L 5.816406 0.0117188 L 5.65625 0.0820312 L 6.804688 0.847656 Z M 2.734375 0.210938 L 2.652344 0.210938 L 3.699219 0.894531 L 3.839844 0.894531 L 3.816406 0.792969 L 2.710938 0.0585938 Z M 8.027344 -2.292969 L 6.980469 -2.988281 C 7.003906 -2.910156 7.027344 -2.839844 7.039062 -2.757812 L 8.144531 -2.035156 C 8.109375 -2.117188 8.074219 -2.210938 8.027344 -2.292969 Z M 8.226562 -1.746094 L 7.085938 -2.488281 C 7.097656 -2.429688 7.109375 -2.363281 7.109375 -2.304688 L 8.25 -1.546875 Z M 2.023438 0.210938 L 3.058594 0.894531 L 3.351562 0.894531 L 2.304688 0.210938 Z M 5.96875 -5.5625 L 7.015625 -4.875 L 7.292969 -4.875 L 6.257812 -5.5625 Z M 6.863281 -5.5625 L 6.609375 -5.5625 L 7.644531 -4.875 L 7.933594 -4.875 L 6.863281 -5.574219 Z M 5.445312 1.023438 L 4.421875 0.347656 L 4.375 0.347656 C 4.28125 0.347656 4.210938 0.335938 4.117188 0.335938 L 5.097656 0.976562 C 5.199219 1 5.328125 1.011719 5.445312 1.023438 Z M 4.316406 -5.164062 L 3.1875 -5.898438 C 3.234375 -5.78125 3.316406 -5.667969 3.433594 -5.5625 L 4.003906 -5.1875 C 4.09375 -5.140625 4.199219 -5.085938 4.316406 -5.039062 Z M 8.003906 -7.273438 L 6.851562 -8.039062 L 6.851562 -7.875 L 8.003906 -7.121094 Z M 5.140625 -6.132812 C 5.128906 -6.203125 5.121094 -6.257812 5.097656 -6.316406 L 4.375 -6.804688 C 4.28125 -6.816406 4.1875 -6.816406 4.09375 -6.816406 L 4.058594 -6.816406 L 5.140625 -6.109375 Z M 3.839844 -1.652344 L 2.6875 -2.421875 L 2.6875 -2.410156 C 2.6875 -2.363281 2.6875 -2.316406 2.699219 -2.269531 L 3.839844 -1.523438 Z M 2.535156 0.894531 L 2.710938 0.894531 L 1.664062 0.210938 L 1.5 0.210938 Z M 4.222656 0.652344 C 4.28125 0.699219 4.363281 0.746094 4.445312 0.78125 L 3.652344 0.257812 C 3.457031 0.210938 3.292969 0.164062 3.140625 0.117188 L 3.78125 0.535156 L 3.757812 0.335938 Z M 3.570312 -1.464844 L 2.78125 -1.988281 C 2.921875 -1.699219 3.222656 -1.535156 3.570312 -1.464844 Z M 3.570312 -1.464844 "/></g></g></g></svg>