<svg xmlns="http://www.w3.org/2000/svg" xmlns:xlink="http://www.w3.org/1999/xlink" width="188" zoomAndPan="magnify" viewBox="0 0 141.75 141.749996" height="188" preserveAspectRatio="xMidYMid meet" version="1.0"><defs><clipPath id="3c8a2a8429"><path d="M 0 0 L 141.5 0 L 141.5 141.5 L 0 141.5 Z M 0 0 " clip-rule="nonzero"/></clipPath><clipPath id="82045700b0"><path d="M 40.417969 63 L 63 63 L 63 86 L 40.417969 86 Z M 40.417969 63 " clip-rule="nonzero"/></clipPath><clipPath id="dddff4bcfa"><path d="M 44 45 L 101.0625 45 L 101.0625 96 L 44 96 Z M 44 45 " clip-rule="nonzero"/></clipPath></defs><g clip-path="url(#3c8a2a8429)"><path fill="#ffffff" d="M 0 0 L 141.5 0 L 141.5 141.5 L 0 141.5 Z M 0 0 " fill-opacity="1" fill-rule="nonzero"/><path fill="#000000" d="M 0 0 L 141.5 0 L 141.5 141.5 L 0 141.5 Z M 0 0 " fill-opacity="1" fill-rule="nonzero"/></g><g clip-path="url(#82045700b0)"><path fill="#ffffff" d="M 58.449219 81.203125 C 58.640625 81.390625 58.871094 81.484375 59.136719 81.488281 C 59.242188 81.5 59.347656 81.5 59.453125 81.488281 C 59.632812 81.421875 59.777344 81.3125 59.894531 81.160156 C 60.007812 81.007812 60.070312 80.835938 60.082031 80.644531 L 62.425781 64.929688 C 62.441406 64.785156 62.429688 64.648438 62.386719 64.507812 C 62.34375 64.371094 62.277344 64.25 62.183594 64.140625 C 62.089844 64.03125 61.976562 63.945312 61.847656 63.886719 C 61.714844 63.824219 61.578125 63.792969 61.433594 63.789062 L 61.300781 63.789062 L 45.613281 66.128906 C 45.207031 66.191406 44.945312 66.417969 44.816406 66.804688 C 44.6875 67.191406 44.769531 67.527344 45.058594 67.8125 L 47.773438 70.527344 L 40.855469 77.433594 C 40.664062 77.625 40.566406 77.859375 40.566406 78.132812 C 40.566406 78.402344 40.664062 78.636719 40.855469 78.828125 L 47.414062 85.390625 C 47.507812 85.484375 47.613281 85.558594 47.738281 85.613281 C 47.859375 85.664062 47.988281 85.691406 48.121094 85.691406 C 48.253906 85.691406 48.382812 85.664062 48.503906 85.613281 C 48.625 85.558594 48.734375 85.484375 48.824219 85.390625 L 55.730469 78.542969 Z M 49.863281 71.21875 C 49.957031 71.128906 50.027344 71.019531 50.078125 70.898438 C 50.128906 70.777344 50.15625 70.652344 50.15625 70.519531 C 50.15625 70.390625 50.128906 70.265625 50.078125 70.144531 C 50.027344 70.023438 49.957031 69.914062 49.863281 69.824219 L 47.851562 67.796875 L 60.292969 65.949219 L 58.449219 78.410156 L 56.4375 76.382812 C 56.238281 76.195312 56.003906 76.101562 55.730469 76.101562 C 55.457031 76.101562 55.222656 76.195312 55.023438 76.382812 L 48.074219 83.304688 L 42.957031 78.140625 Z M 61.464844 64.179688 Z M 61.464844 64.179688 " fill-opacity="1" fill-rule="nonzero"/></g><g clip-path="url(#dddff4bcfa)"><path fill="#ffffff" d="M 97.023438 45.519531 L 48.300781 45.519531 C 48.035156 45.523438 47.769531 45.550781 47.507812 45.601562 C 47.246094 45.65625 46.992188 45.730469 46.746094 45.835938 C 46.5 45.9375 46.265625 46.0625 46.042969 46.210938 C 45.820312 46.359375 45.617188 46.527344 45.429688 46.71875 C 45.238281 46.90625 45.070312 47.109375 44.921875 47.332031 C 44.773438 47.554688 44.648438 47.789062 44.546875 48.035156 C 44.445312 48.28125 44.367188 48.535156 44.3125 48.796875 C 44.261719 49.058594 44.234375 49.320312 44.234375 49.589844 L 44.234375 63.699219 C 44.234375 63.832031 44.257812 63.957031 44.308594 64.078125 C 44.359375 64.199219 44.429688 64.308594 44.523438 64.398438 C 44.617188 64.492188 44.722656 64.5625 44.84375 64.613281 C 44.964844 64.664062 45.09375 64.691406 45.222656 64.691406 C 45.355469 64.691406 45.480469 64.664062 45.601562 64.613281 C 45.722656 64.5625 45.832031 64.492188 45.921875 64.398438 C 46.015625 64.308594 46.089844 64.199219 46.136719 64.078125 C 46.1875 63.957031 46.214844 63.832031 46.214844 63.699219 L 46.214844 49.589844 C 46.214844 49.3125 46.265625 49.046875 46.371094 48.789062 C 46.480469 48.535156 46.628906 48.308594 46.824219 48.113281 C 47.019531 47.917969 47.246094 47.765625 47.5 47.660156 C 47.757812 47.554688 48.023438 47.503906 48.300781 47.503906 L 58.929688 47.503906 L 58.929688 59.121094 C 58.929688 59.253906 58.953125 59.378906 59.003906 59.5 C 59.054688 59.621094 59.125 59.726562 59.21875 59.820312 C 59.3125 59.914062 59.417969 59.984375 59.539062 60.035156 C 59.660156 60.085938 59.789062 60.113281 59.917969 60.113281 C 60.050781 60.113281 60.175781 60.085938 60.296875 60.035156 C 60.417969 59.984375 60.527344 59.914062 60.621094 59.820312 C 60.710938 59.726562 60.785156 59.621094 60.832031 59.5 C 60.882812 59.378906 60.910156 59.253906 60.910156 59.121094 L 60.910156 47.503906 L 97.023438 47.503906 C 97.300781 47.503906 97.566406 47.554688 97.824219 47.660156 C 98.078125 47.765625 98.304688 47.917969 98.5 48.113281 C 98.695312 48.308594 98.847656 48.535156 98.953125 48.789062 C 99.058594 49.046875 99.113281 49.3125 99.113281 49.589844 L 99.113281 76.472656 L 65.066406 76.472656 C 64.792969 76.472656 64.5625 76.570312 64.367188 76.765625 C 64.175781 76.957031 64.078125 77.191406 64.078125 77.464844 C 64.078125 77.738281 64.175781 77.96875 64.367188 78.164062 C 64.5625 78.355469 64.792969 78.453125 65.066406 78.453125 L 99.113281 78.453125 L 99.113281 80.195312 C 99.113281 80.472656 99.058594 80.738281 98.953125 80.996094 C 98.847656 81.253906 98.695312 81.480469 98.5 81.675781 C 98.304688 81.875 98.082031 82.027344 97.824219 82.132812 C 97.570312 82.242188 97.300781 82.296875 97.023438 82.296875 L 62.679688 82.296875 C 62.550781 82.296875 62.421875 82.324219 62.300781 82.371094 C 62.179688 82.421875 62.074219 82.496094 61.980469 82.585938 C 61.886719 82.679688 61.816406 82.789062 61.765625 82.910156 C 61.714844 83.03125 61.691406 83.15625 61.691406 83.289062 L 61.691406 87.460938 L 55.894531 87.460938 C 55.625 87.464844 55.390625 87.5625 55.199219 87.753906 C 55.007812 87.949219 54.910156 88.179688 54.90625 88.453125 L 54.90625 93.902344 L 50.628906 93.902344 C 50.496094 93.902344 50.371094 93.925781 50.246094 93.976562 C 50.125 94.027344 50.019531 94.097656 49.925781 94.191406 C 49.832031 94.285156 49.761719 94.390625 49.710938 94.511719 C 49.660156 94.632812 49.636719 94.761719 49.636719 94.890625 C 49.636719 95.023438 49.660156 95.148438 49.710938 95.269531 C 49.761719 95.390625 49.832031 95.5 49.925781 95.589844 C 50.019531 95.683594 50.125 95.757812 50.246094 95.804688 C 50.371094 95.855469 50.496094 95.882812 50.628906 95.882812 L 94.699219 95.882812 C 94.828125 95.882812 94.957031 95.855469 95.078125 95.804688 C 95.199219 95.757812 95.304688 95.683594 95.398438 95.589844 C 95.492188 95.5 95.5625 95.390625 95.613281 95.269531 C 95.664062 95.148438 95.6875 95.023438 95.6875 94.890625 C 95.6875 94.761719 95.664062 94.632812 95.613281 94.511719 C 95.5625 94.390625 95.492188 94.285156 95.398438 94.191406 C 95.304688 94.097656 95.199219 94.027344 95.078125 93.976562 C 94.957031 93.925781 94.828125 93.902344 94.699219 93.902344 L 90.421875 93.902344 L 90.421875 88.453125 C 90.417969 88.179688 90.316406 87.949219 90.125 87.753906 C 89.933594 87.5625 89.703125 87.464844 89.429688 87.460938 L 83.621094 87.460938 L 83.621094 84.261719 L 97.023438 84.261719 C 97.292969 84.261719 97.554688 84.238281 97.820312 84.183594 C 98.082031 84.132812 98.335938 84.054688 98.582031 83.953125 C 98.828125 83.851562 99.0625 83.726562 99.285156 83.578125 C 99.507812 83.429688 99.710938 83.261719 99.902344 83.070312 C 100.089844 82.882812 100.257812 82.679688 100.40625 82.457031 C 100.554688 82.234375 100.679688 82 100.785156 81.753906 C 100.886719 81.503906 100.960938 81.25 101.015625 80.988281 C 101.066406 80.726562 101.09375 80.460938 101.09375 80.195312 L 101.09375 49.589844 C 101.09375 49.320312 101.066406 49.058594 101.011719 48.796875 C 100.960938 48.535156 100.882812 48.28125 100.777344 48.035156 C 100.675781 47.789062 100.550781 47.554688 100.402344 47.332031 C 100.253906 47.109375 100.085938 46.90625 99.898438 46.71875 C 99.707031 46.527344 99.503906 46.359375 99.28125 46.210938 C 99.058594 46.0625 98.824219 45.9375 98.578125 45.835938 C 98.332031 45.730469 98.078125 45.65625 97.816406 45.601562 C 97.554688 45.550781 97.292969 45.523438 97.023438 45.519531 Z M 63.671875 87.460938 L 63.671875 84.261719 L 81.683594 84.261719 L 81.683594 87.460938 Z M 56.886719 93.902344 L 56.886719 89.398438 L 88.410156 89.398438 L 88.410156 93.902344 Z M 56.886719 93.902344 " fill-opacity="1" fill-rule="nonzero"/></g><path fill="#ffffff" d="M 92.355469 60.53125 C 92.488281 60.53125 92.613281 60.507812 92.734375 60.457031 C 92.855469 60.40625 92.964844 60.335938 93.058594 60.242188 C 93.148438 60.148438 93.222656 60.042969 93.273438 59.921875 C 93.320312 59.796875 93.347656 59.671875 93.347656 59.542969 L 93.347656 53.117188 L 94.609375 53.117188 C 94.738281 53.117188 94.867188 53.089844 94.988281 53.042969 C 95.109375 52.992188 95.214844 52.917969 95.308594 52.828125 C 95.402344 52.734375 95.472656 52.625 95.523438 52.503906 C 95.574219 52.382812 95.597656 52.257812 95.597656 52.125 C 95.597656 51.996094 95.574219 51.867188 95.523438 51.746094 C 95.472656 51.625 95.402344 51.519531 95.308594 51.425781 C 95.214844 51.332031 95.109375 51.261719 94.988281 51.210938 C 94.867188 51.160156 94.738281 51.136719 94.609375 51.136719 L 90.316406 51.136719 C 90.183594 51.136719 90.058594 51.160156 89.9375 51.210938 C 89.816406 51.261719 89.707031 51.332031 89.613281 51.425781 C 89.523438 51.519531 89.449219 51.625 89.398438 51.746094 C 89.351562 51.867188 89.324219 51.996094 89.324219 52.125 C 89.324219 52.257812 89.351562 52.382812 89.398438 52.503906 C 89.449219 52.625 89.523438 52.734375 89.613281 52.828125 C 89.707031 52.917969 89.816406 52.992188 89.9375 53.042969 C 90.058594 53.089844 90.183594 53.117188 90.316406 53.117188 L 91.367188 53.117188 L 91.367188 59.554688 C 91.371094 59.828125 91.46875 60.058594 91.660156 60.246094 C 91.855469 60.4375 92.085938 60.53125 92.355469 60.53125 Z M 92.355469 60.53125 " fill-opacity="1" fill-rule="nonzero"/><path fill="#ffffff" d="M 80.558594 59.554688 L 80.558594 52.125 C 80.558594 51.996094 80.53125 51.867188 80.484375 51.746094 C 80.433594 51.625 80.359375 51.519531 80.269531 51.425781 C 80.175781 51.332031 80.066406 51.261719 79.945312 51.210938 C 79.824219 51.160156 79.699219 51.136719 79.566406 51.136719 C 79.4375 51.136719 79.308594 51.160156 79.1875 51.210938 C 79.066406 51.261719 78.960938 51.332031 78.867188 51.425781 C 78.773438 51.519531 78.703125 51.625 78.652344 51.746094 C 78.601562 51.867188 78.578125 51.996094 78.578125 52.125 L 78.578125 59.554688 C 78.578125 59.6875 78.601562 59.8125 78.652344 59.933594 C 78.703125 60.054688 78.773438 60.164062 78.867188 60.257812 C 78.960938 60.347656 79.066406 60.421875 79.1875 60.472656 C 79.308594 60.523438 79.4375 60.546875 79.566406 60.546875 C 79.699219 60.546875 79.824219 60.523438 79.945312 60.472656 C 80.066406 60.421875 80.175781 60.347656 80.269531 60.257812 C 80.359375 60.164062 80.433594 60.054688 80.484375 59.933594 C 80.53125 59.8125 80.558594 59.6875 80.558594 59.554688 Z M 80.558594 59.554688 " fill-opacity="1" fill-rule="nonzero"/><path fill="#ffffff" d="M 69.089844 51.136719 L 64.796875 51.136719 C 64.664062 51.136719 64.539062 51.160156 64.417969 51.210938 C 64.296875 51.261719 64.191406 51.332031 64.097656 51.425781 C 64.003906 51.519531 63.933594 51.625 63.882812 51.746094 C 63.832031 51.867188 63.804688 51.996094 63.804688 52.125 L 63.804688 59.554688 C 63.789062 59.695312 63.800781 59.835938 63.84375 59.972656 C 63.886719 60.105469 63.953125 60.226562 64.046875 60.332031 C 64.140625 60.441406 64.253906 60.523438 64.382812 60.582031 C 64.511719 60.640625 64.648438 60.667969 64.789062 60.667969 C 64.929688 60.667969 65.066406 60.640625 65.195312 60.582031 C 65.328125 60.523438 65.4375 60.441406 65.53125 60.332031 C 65.625 60.226562 65.695312 60.105469 65.734375 59.972656 C 65.777344 59.835938 65.789062 59.695312 65.773438 59.554688 L 65.773438 56.839844 L 69.089844 56.839844 C 69.359375 56.835938 69.589844 56.738281 69.78125 56.542969 C 69.972656 56.351562 70.066406 56.117188 70.066406 55.847656 L 70.066406 52.125 C 70.066406 51.855469 69.972656 51.625 69.78125 51.429688 C 69.589844 51.238281 69.359375 51.140625 69.089844 51.136719 Z M 68.097656 53.117188 L 68.097656 54.859375 L 65.847656 54.859375 L 65.847656 53.117188 Z M 68.097656 53.117188 " fill-opacity="1" fill-rule="nonzero"/><path fill="#ffffff" d="M 65.726562 64.105469 C 65.726562 64.234375 65.753906 64.363281 65.804688 64.484375 C 65.851562 64.605469 65.925781 64.710938 66.019531 64.804688 C 66.109375 64.898438 66.21875 64.96875 66.339844 65.019531 C 66.460938 65.070312 66.585938 65.09375 66.71875 65.09375 L 94.832031 65.09375 C 94.972656 65.113281 95.113281 65.101562 95.25 65.058594 C 95.382812 65.015625 95.503906 64.949219 95.609375 64.855469 C 95.71875 64.761719 95.800781 64.648438 95.859375 64.519531 C 95.917969 64.390625 95.945312 64.253906 95.945312 64.113281 C 95.945312 63.96875 95.917969 63.835938 95.859375 63.703125 C 95.800781 63.574219 95.71875 63.464844 95.609375 63.371094 C 95.503906 63.277344 95.382812 63.207031 95.25 63.164062 C 95.113281 63.125 94.972656 63.109375 94.832031 63.128906 L 66.71875 63.128906 C 66.449219 63.128906 66.214844 63.222656 66.023438 63.414062 C 65.832031 63.601562 65.730469 63.832031 65.726562 64.105469 Z M 65.726562 64.105469 " fill-opacity="1" fill-rule="nonzero"/><path fill="#ffffff" d="M 83.921875 59.554688 L 83.921875 55.878906 L 86.292969 60.050781 C 86.472656 60.359375 86.746094 60.519531 87.101562 60.53125 L 87.359375 60.53125 C 87.574219 60.472656 87.753906 60.355469 87.890625 60.175781 C 88.027344 59.996094 88.09375 59.796875 88.09375 59.570312 L 88.09375 52.125 C 88.09375 51.996094 88.070312 51.867188 88.019531 51.746094 C 87.96875 51.625 87.894531 51.519531 87.804688 51.425781 C 87.710938 51.332031 87.601562 51.261719 87.480469 51.210938 C 87.359375 51.160156 87.234375 51.136719 87.101562 51.136719 C 86.972656 51.136719 86.84375 51.160156 86.722656 51.210938 C 86.601562 51.261719 86.496094 51.332031 86.402344 51.425781 C 86.308594 51.519531 86.238281 51.625 86.1875 51.746094 C 86.136719 51.867188 86.113281 51.996094 86.113281 52.125 L 86.113281 55.820312 L 83.785156 51.644531 C 83.597656 51.308594 83.3125 51.140625 82.929688 51.136719 C 82.84375 51.121094 82.761719 51.121094 82.675781 51.136719 C 82.457031 51.1875 82.277344 51.300781 82.140625 51.480469 C 82.003906 51.65625 81.9375 51.855469 81.9375 52.082031 L 81.9375 59.554688 C 81.9375 59.6875 81.964844 59.8125 82.015625 59.933594 C 82.066406 60.054688 82.136719 60.164062 82.230469 60.257812 C 82.324219 60.347656 82.429688 60.421875 82.550781 60.472656 C 82.671875 60.523438 82.796875 60.546875 82.929688 60.546875 C 83.0625 60.546875 83.1875 60.523438 83.308594 60.472656 C 83.429688 60.421875 83.539062 60.347656 83.628906 60.257812 C 83.722656 60.164062 83.796875 60.054688 83.84375 59.933594 C 83.894531 59.8125 83.921875 59.6875 83.921875 59.554688 Z M 83.921875 59.554688 " fill-opacity="1" fill-rule="nonzero"/><path fill="#ffffff" d="M 77.390625 55.847656 L 77.390625 52.125 C 77.386719 51.855469 77.289062 51.621094 77.097656 51.429688 C 76.90625 51.238281 76.671875 51.140625 76.398438 51.136719 L 72.183594 51.136719 C 72.050781 51.136719 71.925781 51.160156 71.804688 51.210938 C 71.683594 51.261719 71.574219 51.332031 71.480469 51.425781 C 71.390625 51.519531 71.316406 51.625 71.265625 51.746094 C 71.214844 51.867188 71.191406 51.996094 71.191406 52.125 L 71.191406 59.554688 C 71.191406 59.828125 71.289062 60.0625 71.480469 60.253906 C 71.675781 60.449219 71.910156 60.546875 72.183594 60.546875 C 72.457031 60.546875 72.6875 60.449219 72.882812 60.253906 C 73.074219 60.0625 73.171875 59.828125 73.171875 59.554688 L 73.171875 58.21875 L 75.09375 60.246094 C 75.292969 60.449219 75.53125 60.546875 75.816406 60.546875 C 76.019531 60.566406 76.214844 60.527344 76.394531 60.425781 C 76.574219 60.320312 76.707031 60.175781 76.792969 59.988281 C 76.882812 59.800781 76.90625 59.605469 76.871094 59.402344 C 76.835938 59.199219 76.742188 59.027344 76.59375 58.878906 L 74.585938 56.839844 L 76.398438 56.839844 C 76.671875 56.835938 76.90625 56.738281 77.097656 56.542969 C 77.289062 56.351562 77.386719 56.121094 77.390625 55.847656 Z M 75.410156 53.117188 L 75.410156 54.859375 L 73.171875 54.859375 L 73.171875 53.117188 Z M 75.410156 53.117188 " fill-opacity="1" fill-rule="nonzero"/></svg>